<?xml version="1.0" encoding="utf-8"?>
<!-- Generator: Adobe Illustrator 21.1.0, SVG Export Plug-In . SVG Version: 6.00 Build 0)  -->
<svg version="1.1" id="Capa_1" xmlns="http://www.w3.org/2000/svg" xmlns:xlink="http://www.w3.org/1999/xlink" x="0px" y="0px"
	 viewBox="0 0 6803.1 2834.6" style="enable-background:new 0 0 6803.1 2834.6;" xml:space="preserve">
<style type="text/css">
	.st0{fill-rule:evenodd;clip-rule:evenodd;fill:#FFFFFF;}
	.st1{fill-rule:evenodd;clip-rule:evenodd;fill:#037EF3;}
</style>
<g>
	<rect x="605.5" y="1017.8" class="st0" width="3867.5" height="829"/>
	<path class="st1" d="M2002.3,1240l-38.1,392.5l-4.7,41.7l-6,14.3l-2.3,14.2l-6,11.9l-8.4,8.3l-9.5,8.4l-10.7,8.2l-15.5,4.8l-15.5,7
		l-3.5,2.4l-6,4.7l-2.3,8.4l-3.6,6v4.7l3.6,3.6l2.3,2.4l6,2.4h15.5h22.6h420.6h7.1h8.3l19-8.3l19.1-7.2l17.8-16.6l14.4-11.9
		l14.2-16.7l10.8-16.6l5.9-17.8l8.4-16.6l8.3-22.6l2.3-20.3l3.6-20.2v-5.9l-3.6-8.4v-3.5l-2.3-2.4h-8.3h-6l-4.8,5.9l-14.3,16.7
		l-17.9,22.6l-10.7,13l-14.3,10.7l-15.4,14.3l-19.1,11.9l-20.3,10.6l-26.3,11.9l-28.5,8.3l-31,6l-33.4,4.8h-38.1h-21.4l-14.4-2.4
		l-10.7-2.3l-5.9-3.5l-2.4-4.8l-2.4-5.9l-3.6-6l-2.3-14.2v-19.1l2.3-27.3l11.9-179.6l2.4-10.7l2.4-8.3l2.4-6l9.5-4.7l4.7-6l11.9-3.7
		h15.5l17.8-2.3l20.2,2.3h19.1h14.3l14.3,6l14.3,5.9l10.8,8.3l8.3,11.9l8.3,14.2l5.9,8.4v11.8l6,17.9l2.4,5.9v3.6l3.5,2.4l4.8,4.7
		h7.1l7.1-4.7l3.6-2.4l2.4-3.6l3.6-9.5v-9.5l3.6-47.6l2.4-45.1l3.5-26.2l4.8-23.8v-22.6l4.8-23.7v-12v-8.3l-3.6-6l-1.2-2.4h-2.4
		l-5.9-3.7l-6,3.7h-6l-3.6,2.4l-4.8,11.9l-9.5,17.8l-8.4,16.7l-10.8,13.1l-14.2,10.7l-16.7,8.3l-16.7,7.1l-20.3,2.4l-19,2.4h-21.5
		h-29.7h-11.9l-4.8-2.4l-5.9-2.4l-5.9-3.5v-7.2v-4.8l16.7-184.4v-14.3l3.6-11.9l3.6-8.3l3.6-4.8l3.6-5.9l10.7-3.6l6-2.3h10.7h69.1
		l39.3,2.3l33.4,3.6l15.6,2.4l9.4,5.9l13.2,2.4l9.5,5.9l8.4,5.9l5.9,8.3l6,4.8l2.3,11.9l6,9.5v7.1l2.4,26.3v7.1l3.6,8.3v5.9l2.3,2.4
		h5.9l4.8,3.6l9.6-3.6l4.8-2.4l2.3-5.9l3.7-6v-20.2v-17.8l2.3-16.6v-17.8l3.6-16.7l2.4-19l2.3-17.9v-19.1v-5.9v-3.6l-4.8-3.6h-5.9
		l-14.4-3.5h-16.7h-481.4h-16.6l-11.9,3.5h-4.8l-3.5,2.3l-2.5,4.9l-2.4,5.9v3.6l2.4,7.1l2.5,6l5.9,2.4l19.1,6l20.2,5.9h8.4l7.1,6.1
		l5.9,2.3l5.9,5.9l2.4,8.3l6,8.3l2.4,19.1l2.3,21.4v20.2V1240z M2532.5,1596.9l21.5,147.6l3.6,3.5l2.4,3.5l8.3,4.8l8.3,2.3h8.3
		l46.5,14.4l44,10.7l22.7,2.4l24.9,7.2l22.7,3.5h22.7h27.4l31-7.2l25-5.9l23.8-8.3l21.5-11.9l20.2-15.5l16.7-14.2l20.3-16.7
		l14.3-16.6l14.3-16.6l10.7-22.6l13.1-19l8.3-20.2l3.6-20.2l7.1-19l3.6-20.3v-22.6v-26.2l-7.2-21.4l-4.8-20.3l-6-20.2l-8.3-16.7
		l-11.9-11.9l-10.7-14.2l-15.5-14.2l-13-10.7l-14.4-8.4l-14.3-8.3l-33.4-17.8l-38.1-14.3l-69.1-26.2l-31-13.1l-28.7-14.2l-10.7-8.4
		l-11.9-8.3l-8.3-10.6l-9.5-9.6l-4.8-10.7l-2.4-14.3l-2.3-14.3l2.3-17.8v-8.4l2.4-11.8l3.7-8.4l3.5-8.3l7.1-8.3l6-9.5l8.3-4.8
		l8.3-8.3l16.7-8.3l22.6-9.5l20.2-4.8l21.4-3.6l19.1,3.6l14.2,2.4l14.4,2.4l14.2,5.9l14.3,6l14.4,5.9l14.2,8.3l10.8,10.7l11.8,8.4
		l10.8,11.8l10.7,15.5l9.6,9.5l10.7,15.5l6,10.8l5.9,15.4l3.6,16.7l6,14.2l2.4,14.3l2.4,2.3l4.8,3.7l2.4,2.4h10.6l8.4-2.4l4.8-3.7
		l7.2-5.9v-8.3v-21.4v-42.9v-52.3v-26.2v-22.6l2.3-8.4l-2.3-10.7l-7.2-2.4h-7.2l-8.3,2.4l-13.1,3.6l-13.1,7.1l-11.9,2.5l-14.3-2.5
		l-14.3-2.3l-36.9-17.9l-19.1-3.6l-26.2-8.3l-28.6-3.5l-33.3-4.8l-21.4,4.8l-22.6,3.5l-20.2,4.8l-22.7,5.9l-20.3,8.4l-15.4,13.1
		l-17.9,12l-15.5,14.3l-16.7,14.2l-10.8,13l-13.1,16.7l-10.7,19l-9.6,20.2l-4.7,17.8l-6,21.4v20.3v24.9v22.6l3.6,23.8l4.7,21.4
		l6,17.8l8.3,16.6l10.7,13.2l13.1,14.2l14.3,12l14.3,11.9l14.2,10.7l15.7,8.3l33.3,17.8l33.4,15.5l67.9,24.9l33.4,9.6l28.5,17.9
		l14.2,8.3l8.4,8.3l10.7,8.3l5.9,11.9l6,10.7l4.7,11.9v14.3v17.8l-2.4,13.1l-2.4,13.1l-3.5,14.3l-4.9,10.7l-5.9,10.7l-8.3,9.5
		l-8.4,8.3l-8.3,8.3l-12,6l-9.4,8.4l-10.7,2.3l-14.4,5.9l-11.9,4.8h-13.1l-27.4,3.5h-16.7l-17.9-3.5l-15.4-2.4l-17.9-8.3l-14.3-5.9
		l-13.1-4.8l-16.8-11.9l-9.5-8.4l-11.9-11.8l-11.9-10.7l-10.7-15.5l-8.4-13l-19-29.7l-14.3-28.5l-4.7-14.3l-6-14.3l-2.3-4.7l-5.9-6
		l-2.4-2.4l-8.3-3.6l-12,3.6l-4.8,2.4l-3.5,6l-3.6,2.3v9.6l3.6,7.1L2532.5,1596.9z M3158.1,1240l-40.5,392.5v22.6l-3.6,19l-4.8,14.3
		l-6,14.2l-5.9,11.9l-8.3,8.3l-8.3,8.4l-10.7,8.2l-14.3,4.8l-14.4,7l-6,2.4l-3.6,4.7l-5.9,8.4v6v4.7l3.6,3.6l2.3,2.4l7.2,2.4h14.3
		h19.1h422.9h8.3h9.6l16.6-8.3l20.3-7.2l16.6-16.6l13.1-11.9l14.3-16.7l10.8-16.6l6-17.8l16.6-39.3l4.8-20.3l2.4-20.2v-5.9l-2.4-8.4
		l-2.4-3.5v-2.4h-9.5h-6l-6,5.9l-14.3,16.7l-19.1,22.6l-11.9,13l-13,10.7l-14.4,14.3l-17.8,11.9l-22.7,10.6l-23.8,11.9l-29.8,8.3
		l-29.8,6l-34.6,4.8H3338h-16.7l-15.5-2.4l-9.6-2.3l-7.1-3.5l-2.4-4.8l-6-5.9l-3.5-6l-2.4-14.2v-19.1v-27.3l17.9-179.6l3.6-10.7
		l2.3-8.3l1.2-6l6-4.7l9.4-6l12-3.7h13.1l17.8-2.3l19.1,2.3h20.3h14.3l16.6,6l10.8,5.9l11.9,8.3l10.7,11.9l7.2,14.2l2.4,8.4
		l3.5,11.8l7.2,17.9l6,9.5v2.4l4.8,4.7h6l8.3-4.7v-2.4l6-3.6l2.3-9.5v-9.5l2.4-25V1447l3.6-45.1l6-50.1l2.3-46.3l2.4-12v-8.3v-6
		l-2.4-2.4h-2.3l-6-3.7l-6,3.7h-5.9l-2.4,2.4l-5.9,11.9l-8.4,17.8l-8.3,16.7l-13.1,13.1l-11.9,10.7l-20.2,8.3l-16.7,7.1l-20.3,2.4
		l-19.1,2.4H3363h-27.3h-11.9l-8.4-2.4l-5.9-2.4l-7.1-3.5v-7.2v-4.8l19.1-184.4v-14.3l2.4-11.9l3.6-8.3l5.9-4.8l4.8-5.9l9.6-3.6
		l4.7-2.3h10.7h68l40.5,2.3l35.8,3.6l10.7,2.4l14.3,5.9l8.3,2.4l11.9,5.9l4.8,5.9l9.6,8.3l4.7,4.8l3.5,11.9l2.4,9.5l2.4,7.1
		l3.5,26.3v7.1v8.3l2.4,5.9l3.6,2.4h2.4l4.8,3.6l11.9-3.6l6-2.4l2.3-5.9l3.6-6v-20.2v-17.8v-16.6l3.5-17.8l3.6-35.6l4.8-37v-5.9
		l-2.4-3.6l-2.3-3.6h-7.1l-13.1-3.5h-17.9h-480.2h-16.6l-11.9,3.5h-6l-2.4,2.3l-2.3,4.9l-3.6,5.9v3.6l3.6,7.1l4.7,6l3.5,2.4l19.1,6
		l20.3,5.9h9.5l4.8,6.1l4.8,2.3l6,5.9l4.8,8.3l2.4,8.3l5.9,19.1l2.4,21.4v20.2V1240z M1487.7,1786.1h259.7h21.4h22.6l6-2.4l4.7-2.4
		l7.2-3.6l2.5-4.7l-2.5-14.4l-3.6-7.1l-6-7h-8.3h-10.7l-11.9-4.8l-15.5-5.9l-10.7-8.4l-13.1-10.7l-4.8-5.9l-2.3-8.3l-2.4-9.5
		l-4.8-10.7v-8.3v-11.9l44.1-475.9l3.5-25l3.6-14.2l2.4-11.9l8.3-10.7l8.3-8.3l12-8.4l14.3-5.9l22.6-8.3l4.7-3.6l6-2.5l6-7.1v-3.6
		v-5.9l-3.6-4.9l-2.3-2.3h-2.5l-8.3-3.5h-11.9h-255h-23.8l-16.7,3.5h-8.3l-5.9,2.3l-2.4,4.9l-3.5,5.9v3.6v7.1v2.5l3.5,5.9l8.3,6h8.3
		l14.3,2.4l19.2,3.5l10.6,6.1l11.9,4.7l7.2,14.3l7.1,14.3l5.9,16.6l-3.5,22.6l-41.7,475.9l-2.4,11.9l-4.8,16.7l-7.1,14.2l-4.8,14.3
		l-12,14.4l-5.9,5.8l-2.4,4.8l-8.3,2.4l-8.3,3.5l-6,3.5h-8.3l-10.8-3.5l-6-3.5l-5.9-2.4l-8.4-4.8l-11.8-14.2l-7.2-14.3l-5.9-17.8
		l-10.7-16.6l-6-32.1l-213.3-573.4l-4.7-13.1l-6.1-5.9l-3.5-4.8l-8.4,4.8l-4.8,5.9l-9.5,9.5l-7.2,20.2l-355,609.1l-5.9,14.3
		l-9.6,10.8l-9.6,8.3l-13,11.9l-10.8,4.8l-14.2,7l-9.6,2.4l-2.3,4.7l-6,8.4v6v4.7v3.6l3.6,2.4l2.4,2.4h8.3H749h210.8h11.9h10.8
		l2.3-2.4l2.4-2.4v-3.6v-4.7v-6l-4.7-8.4l-6-4.7l-8.3-2.4l-22.7-7l-23.8-4.8l-15.5-8.2l-13.1-11.9l-7.2-4.8l-2.3-5.9l-2.4-6v-8.3
		l2.4-17.8l6-25l8.3-22.6l11.9-27.3l14.3-22.7l10.7-7.1l5.9-9.6l9.5-8.3l9.6-6l8.4-2.4h11.9h157.2h31l25,2.4l8.3,3.6l6,2.4l6,6
		l4.8,2.3l7.1,11.9l4.8,10.7l10.7,41.6l11.9,34.5l2.3,19v10.7l-2.3,11.8l-1.3,11.9l-6,8.3l-7.1,8.4l-6,5.8l-7.1,7.2l-9.5,3.5
		l-8.3,3.5l-10.7,2.4l-9.6,2.4l-4.7,7.1l-3.7,3.5l-2.3,3.5v7.2l6,6l4.7,2.4h9.6H1487.7z M1005.1,1443.5l79.7-143.9l7.2-14.2l7.2-8.3
		v-3.7h2.4h5.9l4.8,3.7l10.7,14.3l56,146.3l11.9,26.2l2.4,8.3v9.5h-2.4l-3.5,3.6h-4.7l-14.4,2.4h-22.6h-112h-20.2l-11.9-2.4h-4.8
		l-2.4-3.6l-3.5-3.5v-6l3.5-8.3l4.8-8.3L1005.1,1443.5z M6179.7,1161.5l2.4-8.3l6-8.3l8.3-16.7l11.9-16.6l4.8-9.5l2.4-8.4l4.7-19.1
		V1058V1020v-16.6l3.6-11.9l2.3-8.3l2.4-2.4l8.3-5.9l5.9-2.4l10.8-2.4l11.9-3.5l14.3,3.5l9.6,2.4l10.7,2.4l9.5,8.3l2.4,5.9l2.3,6
		l2.3,10.7l3.6,9.5v20.2l-5.9,17.8l-4.8,15.5l-7.2,14.3l-7.1,8.3l-5.9,2.4l-7.1,3.6h-2.4l-5.9-3.6l-2.4,14.3l-1.2,11.9v8.3v8.3
		l3.6,14.2l8.4,23.8l7.1,9.5l2.4,15.5l3.6,13.1v15.5v28.5v14.3l2.4,14.3l2.4,5.9l2.3,8.3l17.8,20.2l28.6,29.7l16.7,11.9l22.7,14.2
		l19.1,14.2l5.9,4.8l2.3,7.2l3.7,7.1v5.9l-3.7,6.1l-4.8,2.3l-8.3,6h-9.6l-16.6,3.6l-2.4-9.6l-6-10.7l-8.3-10.6l-10.8-9.6l-10.7-10.8
		l-14.3-8.3l-14.3-8.3l-11.8-7.1v29.7v21.4l4.7,23.8l9.6,19l4.6,22.7l9.6,29.7l22.6,58.3l19.1,48.8l8.3,20.2l3.5,10.8l13.1,38
		l12,34.5l14.4,29.8l20.2,41.6l3.6,7.2l6,5.9l6,2.3l9.5,1.2h16.6h16.7l16.7-1.2l11.9,1.2l4.8,3.6l2.4,3.6l3.6,5.9v6l-33.4,8.3
		l-24.9,8.3l-29.8,8.4l-19.1,8.3l-8.3,3.7h-8.3h-2.5l-3.4-3.7l-2.5-4.7l-2.4-3.5l-3.6-10.7l-6-14.3l-16.6-32.2l-19.1-33.2l-16.7-31
		l-14.3-34.4l-11.9-19l-11.9-20.2l-28.6-40.4l-10.7-17.8l-11.9-19l-4.7-20.2l-6-8.3v-13.1l-3.6,21.4l-4.7,17.9l-6,16.6l-6,16.6
		l-17.8,30.9l-20.3,25l-40.5,61.8l-22.6,28.5l-19.2,34.5l-5.9,10.7l-2.4,5.9v10.7l2.4,8.3l2.3,5.9l3.6,6l10.7,8.3l8.4,8.3l9.5,8.4
		l2.4,2.4l-2.4,3.5l-2.4,2.4l-7.1,2.4l-6,3.5h-9.5h-11.9l-6-3.5l-6-2.4l-10.6-12l-17.9-19l-14.3-14.3l-7.1-11.9l-5.9-7.2v-3.5v-2.4
		l2.3-10.7l10.8-19l9.6-13.1l2.3-9.5l16.6-21.5l18-26.2l13-27.3l12-29.8l8.4-23.7l9.5-19.1l4.8-22.6l2.3-14.2v-16.7l15.6-94l6-51.2
		l2.3-48.7l-6,15.4l-4.7,16.6l-10.8,36.9l-4.7,37l-2.4,26.1l-15.5,6l-8.3,2.3l-8.5,2.4h-8.3l-4.7-2.4l-6.1-4.7l-3.5-10.7v-2.5v-2.4
		l3.5-11.8l10.8-22.7l11.9-22.6l3.6-8.3l1.2-6l3.5-22.6l2.3-23.8l13.2-40.4l9.4-38.2l15.6-33.2l22.6-52.3l8.3-13.1v-7.1V1161.5z
		 M4369.9,1223.4l-2.4-145.1v-3.6l-3.6-2.4l-2.4-3.5l-6-3.6l-8.2,3.6l-8.4,3.5l-6,6l-2.4,7.1l-6,6l-5.9,5.9l-4.8,4.8h-9.5l-14.3-2.4
		l-16.7-6l-47.7-19.1l-31-10.7l-35.7-8.2l-36.9-5.9h-20.4l-20.2-4.8l-34.5,4.8l-34.6,3.5l-36.9,4.8l-29.8,10.7l-34.6,14.3
		l-36.9,14.2l-29.8,19l-28.6,20.2l-14.3,14.2l-14.3,10.7l-10.8,15.5l-16.6,13.1l-10.7,17.8l-10.7,15.5l-12,19l-8.3,16.6l-10.8,20.2
		l-6,20.2l-8.3,23.8l-8.3,23.8l-6,22.6l-5.9,22.6l-2.3,26.2l-3.7,25v22.6l-3.6,21.4l3.6,20.2v16.6l3.7,19l5.9,19l4.8,16.6l3.6,14.3
		l8.3,17.8l4.8,15.5l17.9,28.5l19,25l22.7,22.6l25,20.3l27.3,19.1l27.4,14.3l32.2,16.7l31,10.7l33.3,5.9l31,7.2h33.4h20.2h19.1
		l19.1-3.5l19-7.2l35.7-8.3l33.4-10.7l31-13.1l28.5-14.3l27.4-16.6l22.7-17.9l21.4-16.6l19.1-16.7l15.5-16.7l14.3-19l12-14.3
		l8.3-10.7l2.5-11.9l3.5-5.9v-8.3l-3.5-2.3l-2.5-3.7h-5.9h-6l-4.8,3.7l-14.3,5.9l-13,13.1l-10.8,9.5l-22.6,20.2l-26.2,20.3
		l-28.6,17.8l-28.6,14.3l-31,10.6l-30.9,10.7l-33.5,6h-32.1H4029l-22.6-6l-25-8.3l-20.2-10.6l-19-14.3l-21.5-16.7l-16.6-19
		l-14.4-20.2l-15.4-22.6l-10.7-25l-8.4-25l-8.3-29.8l-2.3-26.1l-3.6-32.1v-28.6v-28.6l5.9-40.4l4.8-38.1l8.3-34.5l11.9-30.9
		l13.1-28.6l10.7-22.6l17.8-23.8l13.2-17.8l20.2-16.6l17.9-14.3l20.2-10.7l21.4-8.3l20.2-9.5l22.6-2.4l26.3-2.4l23.8-3.6l20.3,3.6
		h14.3l16.6,4.8l16.7,3.5l14.3,6.1l16.6,8.3l14.3,8.3l16.6,10.7l15.5,11.9l9.6,10.7l15.5,15.5l14.4,17.8l10.7,15.5l11.9,17.8
		l11.9,20.2l11.9,22.6l2.4,8.3l6,8.4l5.9,8.3l2.5,3.6l5.9,2.4l4.8-2.4l9.5-6l2.4-8.3v-6l2.4-12l-2.4-13V1240V1223.4z M5871.1,1632.6
		l-4.8,22.6l-3.5,19l-9.5,30.9l-4.8,28.6l-4.7,72.6v9.5l2.4,6l2.3,2.4l4.8,6l13,8.3l14.4,8.4l25,11.9l4.8,5.9l3.5,2.4l-3.5,2.4h-2.5
		l-2.4,3.5h-3.6h-102.5h-4.7l-4.8-3.5l-3.6-2.4v-2.4v-11.9l3.6-8.3l4.8-6l2.4-4.7l2.3-11.9v-15.4l3.7-20.2l-3.7-34.5l-2.3-34.5
		v-16.6l2.3-16.6l-38,21.4l-21.5,14.4l-9.6,11.9l-10.7,10.7l-6,2.4v3.5l-2.4,10.7l2.4,16.7l2.4,10.7l6,29.7v8.3l-2.4,6l-6,3.6
		l-2.4-3.6l-11.9-8.3l-15.6-22.6l-15.4-32.2l-13.1-15.5l-1.3-9.4v-4.8v-3.5l1.3-5.9l21.4-4.8l4.8-6l9.5-5.9l22.6-25l22.6-25
		l25.1-28.6l14.2-13.1l21.4-14.2l6-8.4l7.2-17.8l4.8-7.1l2.4-9.6v-8.3l-2.4-6l-15.6-30.9l-13.1-27.4l-10.7-32l-5.9-16.7l-4.8-20.1
		l-3.5-22.7v-21.4l3.5-15.4l4.8-16.7l5.9-15.5l3.6-17.8l2.4-17.9v-20.3l-6,6l-5.9,6l-4.8,16.6l-11.9,36.9l-13.1,34.4l-3.6,10.8
		l-3.5,8.3l-2.4,2.4l-4.8,9.5l-3.5,10.6l-6,3.6l-2.4,2.5l-5.9,2.3l-8.3-2.3l-6-2.5l-2.4-5.9l-3.5-3.6l3.5-4.8l8.4-9.5l5.9-4.8
		l5.9-8.4l2.4-14.2l2.4-17.8l6-27.4v-2.4l8.2-34.5l5.9-17.9l16.8-35.7l8.4-21.3l6-20.2l5.9-15.5l2.3-21.4l3.6-16.6l4.8-8.3l2.4-8.3
		l10.7-17.8l6-16.8l4.7-21.4l7.2-21.3v-9.6l2.4-13.1l3.6-10.8l3.5-11.8l6-10.7l13.1-9.5l9.5-4.8l7.1-2.4h5.9l14.4,2.4l8.4,2.4
		l7.1,2.4l3.6,5.9l6,11.9l4.8,8.3v11.9v10.7l3.5,4.8v4.7l-3.5,7.1v10.7l-2.5,4.8l-2.4,7.1l-6,7.1l-3.6,2.4l-4.7,3.6l-6,4.8l-4.8-4.8
		v4.8h-5.9v2.3l-3.6,2.5l-2.4,5.9l-2.5,6v2.4l2.5,3.5l6,10.7l10.7,28.6l10.7,25l9.5,17.8l2.4,11.8l-2.4,13.1l-9.5,19l-7.1,13.1v3.6
		l-3.6,6l14.3,18.9l14.3,20.3l42.9,55.9l10.7,15.4l2.4,4.8l2.4,5.9v5.9l-2.4,6.1l-2.4,4.7l-7.1,5.9l-7.2,3.7h-5.9l-2.4-3.7l-2.5-3.5
		l-7.1-7.1v-10.7l-2.4-9.5l-8.3-13.1l-10.8-13.1l-14.3-11.9l-14.3-9.5l-14.3-14.2v26l3.6,17.9l5.9,26.1l8.4,39.2l7.1,37l3.6,35.7
		l6,50v22.6v19v14.3l-3.6,8.3l-2.4,9.5l-6.1,8.3l-10.6,9.5L5871.1,1632.6z M4524.8,1147.3l2.4,11.8l4.8,6v-9.5l2.4-10.7l4.8-6
		l5.8-8.3l12-14.3l2.3-4.7l4.8-9.5l3.5-27.5v-32.1l-8.4,22.6l-2.3,9.5l-9.6,10.7l-2.4,6l-5.8,5.9l-4.8,2.4l-7.1-2.4l-5.9,16.7
		l-3.6,16.6v8.3L4524.8,1147.3z M5287.2,1744.5l14.4,33.2l2.4,3.6l6,4.7h2.4l5.8,3.5l12,3.7h11.9l26.2-3.7h11.9h8.4v-33.2v-28.6
		l2.3-27.4l6-35.7l3.6-28.5l2.3-16.7v-3.5l-2.3,3.5l-3.6,9.5l-6,7.2l-4.7,5.9l-10.8,7.1l-7.1,6l-33.3,35.7l-25,28.6L5287.2,1744.5z
		 M4881,1655.2l11.9,31l7.1,28.5l10.7-59.5l2.4-28.5V1616l-2.4,3.5l-10.7,11.9l-3.6,8.3L4881,1655.2z M4503.2,1719.5l-10.6,34.4
		l-3.6,16.6l-2.5,10.8l2.5,4.7l3.6,10.7l4.7,4.7l5.9,8.4l14.4,11.9l17.9,14.3l-8.3-14.3l-5.9-8.3l-6-10.7v-1.2l9.5-8.3l2.4-7.2
		l4.8-4.7l-7.1-14.3l-9.5-13.1L4503.2,1719.5z M4819,1375.6l-14.3-8.3l-11.9-5.9v28.5l3.5,19.1l2.4,23.8l6,22.6l10.7,29.7l11.9,28.5
		l27.4,65.4l8.4-19l5.9-32.1l6-33.3v-13.1v-9.5v-9.5l-2.4-7.1v-3.6l-3.6,3.6v2.4l-1.1,8.3l-2.4,8.4l-7.1,10.7v2.4h-3.6h-7.1
		l-11.9-2.4l-8.3-7.1l-2.4-6l-5.9-5.9v-2.4v-8.3l2.4-14.4l3.5-11.9l-3.5-16.6L4819,1375.6z M4714.2,1611.2l28.5,53.5l8.3,21.5
		l2.4,8.2v10.7l20.3-28.6l22.6-27.4l-20.2-29.7l-19-26.1l-6-14.3l-4.8-14.3l-7.1-13.1v-19.1l-10.7,41.7l-6,19L4714.2,1611.2z
		 M5009.7,1295.9l-4.8-4.7l-2.4-3.5l-14.3,135.5l2.4,69.1v90.5v19l5.9-13.1l6-14.3v-14.2l2.4-22.6l8.4-45.2l8.3-45.2l12-45.1v-25
		l3.6-25l-8.4-13l-10.8-16.6l-8.3-16.6v-6V1295.9z M4680.8,1833.7l-2.4,2.4l6,2.3l4.8,3.5l14.3,2.4l23.8,2.4l-13.1-22.6l-27.4-65.5
		l19-14.2l-7.1-16.7l-7.2-19l-7.1-17.8l-6-4.7l-3.6-6l-4.7,8.4l-6,5.9l-6,6l-8.3,8.3v47.6l2.3,25l3.6,11.9l2.4,9.5h14.3l5.9,3.6h6
		l2.4,7.1l4.7,2.4v6l4.8,8.3h-9.5L4680.8,1833.7z M4604.5,1809.9l-2.3-13.1v-19l-5.9,8.3l-8.4,15.4L4604.5,1809.9z M4583.2,1694.4
		l-13.3-24.9l-15.4-29.8l-9.6,11.9l4.8,9.5l4.7,13.1l4.8,28.5l4.8,22.6L4583.2,1694.4z M4384.1,1725.3l9.5,1.3l9.5,2.4l8.4,4.7
		l7.2,5.9l5.9,7.2l4.8,8.2l2.3,9.6l1.1,9.6l-1.1,9.5l-2.3,9.5l-4.8,8.3l-5.9,7.2l-7.2,5.9l-8.4,3.6l-9.5,3.5h-9.5h-9.6l-9.5-3.5
		l-7.1-3.6l-7.2-5.9l-6-7.2l-4.8-8.3l-3.5-9.5v-9.5v-9.6l3.5-9.6l4.8-8.2l6-7.2l7.2-5.9l7.1-4.7l9.5-2.4L4384.1,1725.3z
		 M4384.1,1731.4l-8.4,1.1l-8.3,2.4l-7.1,3.5l-6,6l-4.7,5.9l-4.8,7.1l-2.4,8.3l-1.2,8.3l1.2,8.3l2.4,8.2l4.8,7.2l4.7,5.9l6,6
		l7.1,3.5l8.3,2.4l8.4,1.2l8.3-1.2l8.3-2.4l7.2-3.5l7.1-6l4.9-5.9l3.5-7.2l2.4-8.2l1.2-8.3l-1.2-8.3l-2.4-8.3l-3.5-7.1l-4.9-5.9
		l-7.1-6l-7.2-3.5l-8.3-2.4L4384.1,1731.4z M4409.2,1762.3l-1.2-3.6l-1.2-4.7l-2.4-2.4l-3.6-3.5l-2.3-1.1l-4.8-2.4h-3.6l-3.6-1.2
		l-7.1,1.2l-4.8,2.4l-4.7,2.3l-4.8,3.6l-2.4,4.8l-2.3,4.8l-1.2,5.9v6v5.9l1.2,4.8l2.3,5.9l2.4,4.9l4.8,3.5l4.7,2.3l4.8,2.4h7.1h4.8
		l3.6-1.2l4.7-2.3l3.6-2.3l2.4-3.6l2.4-3.7l1.2-4.7l1.2-4.7h-5.9l-1.2,7.1l-4.7,6l-2.4,2.3l-2.4,1.3l-3.6,1.1h-3.6h-5.9l-4.8-2.4
		l-3.5-2.3l-2.4-2.4l-2.4-4.8l-2.4-3.5l-1.2-4.8v-4.7v-4.8l1.2-4.7l2.4-4.8l2.4-3.5l2.4-3.6l3.5-2.4l4.8-1.2l5.9-1.2l6,1.2l4.8,3.6
		l4.7,3.6l2.4,5.9H4409.2z M174.5,969.9h4312.1l31.1,2.4h14.3l13,2.4l9.6,5.9l4.8,5.9l4.8,4.8l3.5,9.5l2.3-5.9l7.2-8.4l6-5.9
		l4.7-5.9l14.3-2.4l10.7-2.4l11.8,2.4l10.7,2.4l9.5,2.4l7.2,5.9l6,8.3l2.3,6l3.6,8.4v11.9v8.3v11.9l-6,17.9l-6,13.1l-10.8,16.6
		l-8.3,8.4l-6,3.6l-4.8,2.4l-5.9,2.4l-6-2.4l2.4,14.3l3.6,14.2l5.9,10.7l4.8,11.9l10.7,23.8l12,15.5l2.3,15.4l3.6,7.1l14.3-33.3
		l2.4-9.4l2.3-8.4l3.6-8.3l6-8.3l11.9-16.7l9.5-14.2l3.7-8.4l2.3-11.8l7.2-19.1V1058l-4.8-38.1v-14.2l4.8-14.3l3.5-4.8l4.8-5.9
		l5.9-5.9l9.5-2.4l10.7-2.4h11.9h10.7l9.6,2.4l10.6,4.8l5.9,5.9l4.9,8.3l3.5,6l2.3,8.4l2.4,11.9v17.8l-2.4,17.8l-5.9,15.5l-8.4,14.3
		l-8.3,10.7l-4.7,3.6l-3.6,2.4h-6l-2.4-2.4l-5.9,25l-2.4,8.3l2.4,5.9l3.5,14.2l8.4,23.8l6,9.5l4.7,15.5v13.1l2.5,19v27.4v11.9v14.3
		l3.5,5.9l5.9,4.7l13.2,19v-15.5l3.5-11.8l28.6-82.2l15.5-40.4l5.9-14.3l6-8.3l17.9-14.3l20.2-14.2l18.9-14.3l12-11.9l4.8-4.8v-10.8
		l-4.8-16.6l-2.4-17.9l-3.5-17.8l5.9-16.6l4.8-8.3l4.7-8.4l8.4-9.5l8.3-4.8l11.9-2.4h14.2l13.2,2.4l11.9,2.4l9.5,5.9l6,5.9l1.1,8.4
		l3.6,10.7v14.2v15.5v14.3l-3.6,11.8l-4.7,7.2l-2.4,9.5l-7.1,7.1l-6,2.5h-4.7l-8.4,3.6h-5.9h-2.5l-3.5,2.4v3.6l3.5,4.8v5.9v3.6
		l-3.5,4.7v3.6l3.5,8.3l2.5,8.3l3.6,10.7l7.2,29.7l6,20.2l8.3,20.2l7.1-14.2l2.4-15.4l8.3-13.1l9.6-15.5l2.4-14.2l2.4-22.6
		l10.7-60.7l9.5-28.6l8.4-29.7l5.9-8.3l4.9-11.9l9.5-8.3l8.3-2.4l10.8-2.4h10.6h12l8.3,2.4l10.8,4.8l9.5,5.9l3.6,8.3l5.9,6l2.4,17.8
		v20.2l-2.4,14.3l-5.9,15.4l-3.6,13.1l-13.1,13.1l-3.5,2.4h-6l-6,3.6l-4.7-3.6l-3.6,26.2v8.3v8.3l3.6,14.2l4.7,19.1l21.4,35.6
		l9.6,17.9v8.2l1.2,6l-1.2,7.1l-7.2,17.9l-2.4,14.3l-2.3,8.3v5.9l4.7,4.7l4.8,9.6l11.9,16.6l29.8,25l16.6,7.1l22.7,15.4l20.3,14.3
		l6,5.9l2.3,4.8l2.3,9.5l-2.3,4.8l-2.3,5.9l-3.6,6.1l-8.3,2.3h-8.3H5248l-2.4-8.4l-9.5-10.6l-7.1-9.5L5217,1384l-10.8-8.4l-15.5-8.3
		l-13-5.9l-15.6-9.6l3.6,29.7v22.7l4.7,19l7.2,26.2l16.6,47.6l22.7,57.1l16.6,51.2l9.6,16.6l2.3,10.7l8.4,25l8.3,19l47.7-65.4
		l29.8-34.4l6-8.4l3.5-16.7l9.6-38.1l9.5-39.2l3.6-11.9l-9.6-21.5l-7-17.9v-8.4v-5.9l13.1-33.3l7.1-21.4v-9.5l4.8-29.7v-19v-2.4
		h-4.8l-3.5,17.9l-16.7,35.7l-6.1,17.8l-3.5,19.1l-3.5,17.9v10.6v10.7l-2.4,11.9l-4.8,5.9l-2.4,6l-5.9,4.8l-8.4,10.7h-1.2h-7.1
		l-2.4-4.7l-6-2.4l-5.9-6l-5.9-5.9v-6v-4.7l8.3-9.6l5.9-4.7l3.6-5.9v-5.9l-3.6-19v-38.1l6-40.5l2.4-23.7l4.7-14.3l13.1-36.9
		l16.7-34.5l15.4-38l13.1-22.6l15.5-16.6l14.3-10.7l8.3-9.5l5.9-4.8l6-5.9l2.4-3.6v-4.8l-2.4-8.4l-2.4-13.1l-3.6-11.8v-12l-2.3-11.9
		l2.3-14.3l3.6-10.7l8.3-14.3l2.3-5.9l4.8-5.9l7.2-2.4l4.7-2.4l13.1-2.3l11.9,2.3l10.7,2.4l6,2.4l16.7,8.3h4.8l1.2,5.9l3.5,6
		l2.4,8.3l4.8,8.3v8.4v10.7l-4.8,9.5l-5.9,17.8l-1.2,7.1l-4.8,9.5l-5.9,8.4l-7.3,4.8l-8.3,3.6l-8.3,2.4h-3.6v3.6l-2.4,8.3l2.4,10.7
		v6l-2.4,5.9v27.4v49.9l2.4,26.1l7.2,22.7l4.8,13l2.4,5.9l2.4,3.7l22.6-14.3l26.2-20.2l32.2-22.6l95.2,119l-63.1,53.5l2.4,5.9v6
		h-2.4v2.4l-8.4,5.9l-2.4,5.9l-6,4.7l-5.9,3.7h-4.7h-2.4h-4.8l-6-5.9l-53.6,45.1l-32.2-42.9l3.5,11.9l3.6,34.5v22.7v25l-3.6,28.6
		l-7.2,28.6l3.6,27.4v20.2v14.3l-3.6,5.9l-2.4,7.1l-14.3,78.6l-5.9,55.9l-2.5,19v16.7l12,10.7l10.7,8.3l13.1,8.4l6,3.5h13.1l9.6,2.4
		l10.7,6l2.4,2.4v5.9l-2.4,2.4l-7.2,3.5h-4.7h-77.4h-45.4h-2.3l-2.4-3.5v-2.4l-2.4-2.4l2.4-5.9v-6v-10.8l2.4-22.6l-37,10.7
		l-34.6,14.3l-13.1,5.9l-8.3,4.7l-8.4,6h-8.3h-2.4l-6-6l-2.4-4.7v-8.3l-3.5-14.2l-2.4-14.3l-14.3-23.8l-2.4,7.2l-2.3,4.7l-3.7,14.3
		l3.7,14.3l2.3,14.3v5.9l2.4,2.4l10.7,2.3l9.6,6l2.4,3.5l2.4,4.7h-2.4l-2.4,3.5h-6H5248l-14.4-3.5l-8.3-2.4l-5.9-2.4l-4.8-5.9
		l-4.8-6l-9.5-16.6l-13.1-14.3l-16.6-32.2l-2.4-5.9v-6l2.4-4.7l7.2-2.5l13-14.2l19.1-11.9l4.8-2.4l2.5-4.8l-10.8-26.1l-11.9-27.4
		l-11.9-22.6l-11.9-21.5l-32.2-46.3l-10.7-21.4l-11.9-23.8l-8.4-23.8v-10.7l-2.4-9.5l-3.6,20.2l-5.9,19l-8.4,19l-8.4,16.6
		l-16.6,32.2l-20.3,30.9l-20.2,32.1l-22.6,30.9l-8.3,17.9l-8.4,16.6l-6,16.7l-5.9,21.4l-2.4,15.5v13.1h10.7h14.4l20.2-3.6h10.7
		l7.1,3.6l2.4,3.6v3.5v8.3l-12,8.3l-25.1,14.3l6,5.9h10.7l10.7,2.4l4.8,2.3l2.4,9.6v2.4l-2.4,2.4l-7.2,3.5h-8.3h-10.7H4900h-3.6
		l-3.5-3.5l-2.4-4.7v-5.9v-16.8l2.4-20.2l-17.9-22.6l-16.7-28.6l-14.3-28.5l-14.4-31l-31,33.4l-16.6,22.5l-6,6l-2.4,4.7l-2.4,3.6
		l2.4,4.7l2.4,7.2l6,5.9l5.9,3.5l8.3,3.6h8.4h16.7h20.2l16.7-3.6l16.7,3.6h2.4l7.2,3.6l3.6,5.9v6l-3.6,5.9l-3.5,2.4l-12,6
		l-21.4,10.7l-17.9,8.3l-14.2,9.6l-10.7,2.4l-11.9,2.4l-10.7,3.5h-16.7h-5.9l-6-3.5l-2.4-2.4l-2.4-5.9v3.5l-2.4,4.7h-7.1l-10.7,3.5
		h-112h-33.3h-15.6h-3.5l-3.6-3.5l-1.2-4.7l-2.3,4.7l-2.4,3.5h-20.2h-16.6l-31.1-3.5H174.5V1010"/>
</g>
</svg>
