<?xml version="1.0" encoding="utf-8"?>
<!-- Generator: Adobe Illustrator 21.1.0, SVG Export Plug-In . SVG Version: 6.00 Build 0)  -->
<svg version="1.1" id="Layer_1" xmlns="http://www.w3.org/2000/svg" xmlns:xlink="http://www.w3.org/1999/xlink" x="0px" y="0px"
	 viewBox="0 0 319.9 71.4" style="enable-background:new 0 0 319.9 71.4;" xml:space="preserve">
<g>
	<g>
		<path d="M71.1,46.8V32.1l-7.3-4.8V11.5l-15-9.9l-8.2,6.1L28.6,0L14.3,10.5v3.3L0,24.5v14.7l8.1,5.4v16l15.1,9.8l8.4-6.3L43.8,72
			l14.3-10.5v-5L71.1,46.8z M15.4,27V15.2l11.5-8.6v12L15.4,27z M28.6,18.5v-12l13.1,8.6v11.4L28.6,18.5z M16.5,52.1l12-8.8L41,51.5
			l-11.9,8.8L16.5,52.1z M27.6,30.2v11.7l-11.7,8.6V38.8L27.6,30.2z M15.9,28.7L27.8,20L41,28.1l-5.4,4l-7.2-4.7l-6.6,4.9L15.9,28.7
			z M14.1,46.4L2.4,38.6l12.2-8.9l5.8,3.6l-6.2,4.6L14.1,46.4z M41.6,45.4v4.4l-12.3-8V30.1l5.5,3.5V41L41.6,45.4z M13.7,16.5v11.8
			L1.7,37V25.4L13.7,16.5z M30.2,63.1l-7,5.2L10.5,60l7-5.2L30.2,63.1z M55.7,61.1l-12,8.8l-13.2-8.6l11.9-8.8L55.7,61.1z
			 M63.9,41.5V29.3l5.5,3.7v11.8L63.9,41.5z M49.7,16.4V4.3l12.5,8.1v12.5L49.7,16.4z M49.7,30.3V18.4l12.5,8.4v11.6l-3-2l0,0
			L49.7,30.3z M61.5,40.1l-11.8,8.6l-12.6-8.2l11.7-8.7L61.5,40.1z M43.3,46.5l6.5,4.3l6.5-4.8v1.6v11.9l-13-8.5V46.5z M61.7,42
			l7,4.3L58,54.4v-7.5v-2.1L61.7,42z M39.1,8.9l-1.7,1.3l-8.1-5.3V2.5L39.1,8.9z"/>
		<g>
			<path d="M121,64.3c-1.6,0-3-0.3-4.2-0.8c-1.2-0.5-2.3-1.2-3.1-2.1c-0.8-0.9-1.5-1.9-1.9-3c-0.4-1.2-0.6-2.4-0.6-3.6
				c0-1.3,0.2-2.5,0.6-3.6c0.4-1.2,1.1-2.2,1.9-3c0.8-0.9,1.9-1.6,3.1-2.1s2.6-0.8,4.2-0.8s3,0.3,4.2,0.8s2.2,1.2,3.1,2.1
				c0.8,0.9,1.5,1.9,1.9,3c0.4,1.2,0.7,2.4,0.7,3.6c0,1.3-0.2,2.5-0.6,3.6c-0.4,1.2-1.1,2.2-1.9,3c-0.8,0.9-1.9,1.6-3.1,2.1
				C123.9,64.1,122.5,64.3,121,64.3 M116.9,54.8c0,1.4,0.4,2.6,1.2,3.5c0.8,0.9,1.8,1.3,2.9,1.3c0.6,0,1.1-0.1,1.6-0.4
				c0.5-0.2,0.9-0.6,1.3-1s0.6-0.9,0.9-1.5s0.3-1.2,0.3-1.9c0-1.4-0.4-2.6-1.2-3.5c-0.8-0.9-1.7-1.3-2.9-1.3c-0.6,0-1.1,0.1-1.6,0.4
				c-0.5,0.2-0.9,0.6-1.3,1s-0.6,0.9-0.9,1.5C117,53.5,116.9,54.1,116.9,54.8"/>
			<path d="M215.1,51c-0.4-1.2-1-2.2-1.8-3c-0.8-0.9-1.7-1.5-2.7-2s-2.2-0.7-3.4-0.7c-1.4,0-2.6,0.3-3.6,0.9
				c-0.7,0.4-1.3,0.9-1.8,1.4v-2h-5.6v25.8h5.6V61c0.6,1.1,1.4,1.9,2.4,2.4c1,0.6,2.2,0.9,3.6,0.9c1.1,0,2.2-0.2,3.2-0.7
				c1-0.5,1.8-1.2,2.5-2c0.7-0.9,1.2-1.9,1.6-3c0.4-1.2,0.6-2.4,0.6-3.8C215.7,53.4,215.5,52.2,215.1,51 M210.2,56.7
				c-0.2,0.6-0.5,1.1-0.9,1.5s-0.8,0.7-1.3,1s-1,0.3-1.6,0.3c-1.2,0-2.2-0.4-2.9-1.3c-0.8-0.9-1.2-2-1.2-3.5c0-0.7,0.1-1.3,0.3-1.9
				c0.2-0.6,0.5-1.1,0.9-1.5s0.8-0.7,1.3-1c0.5-0.2,1-0.3,1.6-0.3c1.2,0,2.1,0.4,2.9,1.3c0.8,0.9,1.2,2,1.2,3.5
				C210.5,55.5,210.4,56.2,210.2,56.7"/>
			<path d="M319.3,51c-0.4-1.2-1-2.2-1.8-3c-0.8-0.9-1.7-1.5-2.7-2s-2.2-0.7-3.4-0.7c-1.4,0-2.6,0.3-3.6,0.9
				c-0.7,0.4-1.3,0.9-1.8,1.4v-2h-5.6v25.8h5.6V61c0.6,1.1,1.4,1.9,2.4,2.4c1,0.6,2.2,0.9,3.6,0.9c1.1,0,2.2-0.2,3.2-0.7
				c1-0.5,1.8-1.2,2.5-2c0.7-0.9,1.2-1.9,1.6-3c0.4-1.2,0.6-2.4,0.6-3.8C319.9,53.4,319.7,52.2,319.3,51 M314.3,56.7
				c-0.2,0.6-0.5,1.1-0.9,1.5s-0.8,0.7-1.3,1c-0.5,0.2-1,0.3-1.6,0.3c-1.2,0-2.2-0.4-2.9-1.3c-0.8-0.9-1.2-2-1.2-3.5
				c0-0.7,0.1-1.3,0.3-1.9c0.2-0.6,0.5-1.1,0.9-1.5s0.8-0.7,1.3-1c0.5-0.2,1-0.3,1.6-0.3c1.2,0,2.1,0.4,2.9,1.3
				c0.8,0.9,1.2,2,1.2,3.5C314.6,55.5,314.5,56.2,314.3,56.7"/>
			<polygon points="139.8,52.1 146,52.1 146,45.6 151.6,45.6 151.6,64 146,64 146,57 139.8,57 139.8,64 134.3,64 134.3,45.6 
				139.8,45.6 			"/>
			<polygon points="187.4,64 181.8,64 181.8,50.5 176.3,50.5 176.3,45.6 192.9,45.6 192.9,50.5 187.4,50.5 			"/>
			<path d="M219.6,66.7c0.4,0.2,0.8,0.3,1.1,0.4c0.4,0.1,0.7,0.1,0.9,0.1c0.5,0,1-0.2,1.3-0.7c0.4-0.5,1.1-1.3,0.9-2.5
				c-0.2-1.2-7-18.4-7-18.4h5.9l4.1,12.3l3.6-12.3h5.4L229,66.3c-0.7,2-1.6,3.4-2.7,4.4c-1.1,0.9-2.5,1.4-4.1,1.4
				c-0.5,0-0.9,0-1.4-0.1s-0.9-0.2-1.3-0.4v-4.9H219.6z"/>
			<polygon points="250.3,45.6 256.3,45.6 249.1,54.5 256.9,64 250.5,64 245.1,57.4 244.4,57.4 244.4,64 238.9,64 238.9,45.6 
				244.4,45.6 244.4,52.5 245,52.5 			"/>
			<polygon points="269.9,64 264.3,64 264.3,50.5 258.8,50.5 258.8,45.6 275.4,45.6 275.4,50.5 269.9,50.5 			"/>
			<path d="M287.1,64.3c-1.6,0-3-0.3-4.2-0.8c-1.2-0.5-2.3-1.2-3.1-2.1c-0.8-0.9-1.5-1.9-1.9-3c-0.4-1.2-0.6-2.4-0.6-3.6
				c0-1.3,0.2-2.5,0.6-3.6c0.4-1.2,1.1-2.2,1.9-3c0.8-0.9,1.9-1.6,3.1-2.1s2.6-0.8,4.2-0.8s3,0.3,4.2,0.8s2.2,1.2,3.1,2.1
				s1.5,1.9,1.9,3s0.7,2.4,0.7,3.6c0,1.3-0.2,2.5-0.6,3.6c-0.4,1.2-1.1,2.2-1.9,3c-0.8,0.9-1.9,1.6-3.1,2.1
				C290,64.1,288.6,64.3,287.1,64.3 M283,54.8c0,1.4,0.4,2.6,1.2,3.5c0.8,0.9,1.8,1.3,2.9,1.3c0.6,0,1.1-0.1,1.6-0.4
				c0.5-0.2,0.9-0.6,1.3-1s0.6-0.9,0.9-1.5s0.3-1.2,0.3-1.9c0-1.4-0.4-2.6-1.2-3.5c-0.8-0.9-1.7-1.3-2.9-1.3c-0.6,0-1.1,0.1-1.6,0.4
				c-0.5,0.2-0.9,0.6-1.3,1s-0.6,0.9-0.9,1.5C283.1,53.5,283,54.1,283,54.8"/>
			<path d="M89.8,5.6h18.6v5H95.6v4.8h6c2.7,0,4.8,0.6,6.3,1.9s2.3,3.1,2.3,5.5s-0.7,4.3-2.2,5.6c-1.4,1.3-3.5,2-6.1,2h-12V5.6H89.8
				z M101.2,25.6c1,0,1.8-0.3,2.3-0.8s0.8-1.2,0.8-2.1c0-0.8-0.3-1.5-0.8-2s-1.3-0.8-2.3-0.8h-5.6v5.6L101.2,25.6L101.2,25.6z"/>
			<polygon points="119.1,22.4 127.1,12.1 131.2,12.1 131.2,30.4 125.6,30.4 125.6,20.4 117.7,30.4 113.6,30.4 113.6,12.1 
				119.1,12.1 			"/>
			<path d="M134.9,13.7c1.1-0.8,2.2-1.5,3.4-1.8c1.2-0.4,2.4-0.6,3.6-0.6c0.9,0,1.7,0.1,2.5,0.3s1.5,0.5,2.1,0.9s1.1,0.9,1.4,1.6
				c0.4,0.6,0.5,1.4,0.5,2.2c0,0.9-0.3,1.8-0.8,2.6c-0.5,0.8-1.3,1.3-2.2,1.5c1.3,0.3,2.3,0.9,3,1.8c0.7,0.8,1,1.9,1,3.1
				c0,0.8-0.2,1.6-0.6,2.3c-0.4,0.7-0.9,1.3-1.6,1.8c-0.7,0.5-1.5,0.9-2.4,1.2c-0.9,0.3-2,0.4-3,0.4c-1.6,0-3-0.2-4.4-0.7
				c-1.3-0.5-2.4-1.1-3.1-2l2.6-3.7c0.4,0.5,1,0.9,1.7,1.2c0.7,0.3,1.5,0.4,2.3,0.4c0.9,0,1.6-0.2,2.2-0.5c0.5-0.3,0.8-0.8,0.8-1.5
				s-0.3-1.2-0.8-1.6s-1.5-0.6-3-0.6h-1.6v-3h1.5c1.1,0,2-0.2,2.5-0.6c0.6-0.4,0.8-0.9,0.8-1.5c0-0.5-0.2-0.9-0.6-1.2
				c-0.4-0.3-0.9-0.4-1.5-0.4s-1.3,0.1-2.1,0.4c-0.8,0.3-1.4,0.7-2,1.2L134.9,13.7z"/>
			<polygon points="158.5,18.6 164.7,18.6 164.7,12.1 170.2,12.1 170.2,30.4 164.7,30.4 164.7,23.4 158.5,23.4 158.5,30.4 
				152.9,30.4 152.9,12.1 158.5,12.1 			"/>
			<path d="M192.6,25.3c-0.5,1.7-2,3.2-3.5,4.1s-3.3,1.4-5.5,1.4c-1.5,0-2.9-0.3-4.1-0.8c-1.2-0.5-2.3-1.2-3.1-2
				c-0.9-0.9-1.5-1.9-1.9-3s-0.7-2.3-0.7-3.6c0-1.3,0.2-2.6,0.7-3.8c0.4-1.2,1.1-2.2,1.9-3.1c0.8-0.9,1.9-1.6,3.1-2.1
				c1.2-0.5,2.6-0.8,4.2-0.8s3,0.3,4.2,0.8s2.2,1.2,3.1,2.1c0.8,0.9,1.5,1.9,1.9,3s0.6,2.3,0.6,3.6c0,0.3,0,0.6,0,1
				c0,0.3-0.1,0.6-0.1,0.8h-13.6c0.1,1.2,0.5,2.2,1.3,2.8c0.8,0.6,1.7,1,2.7,1c0.8,0,1.6-0.2,2.4-0.6c0.4-0.2,0.8-0.5,1.1-0.8
				 M187.5,19.5c-0.1-1.2-0.5-2.1-1.3-2.8c-0.7-0.7-1.6-1-2.7-1c-1.1,0-2,0.3-2.7,1c-0.7,0.7-1.1,1.6-1.2,2.7L187.5,19.5L187.5,19.5
				z"/>
			<path d="M210.3,23.2L210.3,23.2c-0.2,0.7-0.5,1.2-0.9,1.6s-0.8,0.8-1.3,1s-1,0.4-1.6,0.4c-1.2,0-2.2-0.4-3-1.3s-1.2-2-1.2-3.5
				c0-0.7,0.1-1.4,0.3-2s0.5-1.1,0.9-1.5s0.8-0.8,1.3-1s1.1-0.4,1.6-0.4c1.2,0,2.1,0.4,2.9,1.3c0.4,0.4,0.6,1,0.8,1.6h5.9
				c-0.1-0.6-0.3-1.2-0.5-1.7c-0.4-1.2-1.1-2.2-1.9-3.1c-0.8-0.9-1.9-1.6-3.1-2.1c-1.2-0.5-2.6-0.8-4.2-0.8s-3,0.3-4.2,0.8
				s-2.3,1.2-3.1,2.1c-0.8,0.9-1.5,1.9-1.9,3.1s-0.7,2.4-0.7,3.6c0,1.3,0.2,2.5,0.7,3.6c0.4,1.2,1.1,2.2,1.9,3.1
				c0.8,0.9,1.9,1.6,3.1,2.1c1.2,0.5,2.6,0.8,4.2,0.8s3-0.3,4.2-0.8s2.3-1.2,3.1-2.1s1.5-1.9,1.9-3.1c0.2-0.6,0.4-1.2,0.5-1.8
				L210.3,23.2L210.3,23.2z"/>
			<path d="M168.4,56.7C168.4,56.8,168.4,56.8,168.4,56.7c-0.2,0.7-0.5,1.2-0.9,1.6c-0.4,0.4-0.8,0.8-1.3,1s-1,0.4-1.6,0.4
				c-1.2,0-2.2-0.4-3-1.3c-0.8-0.9-1.2-2-1.2-3.5c0-0.7,0.1-1.4,0.3-2s0.5-1.1,0.9-1.5s0.8-0.8,1.3-1s1.1-0.4,1.6-0.4
				c1.2,0,2.1,0.4,2.9,1.3c0.4,0.4,0.6,1,0.8,1.6h5.9c-0.1-0.6-0.3-1.2-0.5-1.7c-0.4-1.2-1.1-2.2-1.9-3.1c-0.8-0.9-1.9-1.6-3.1-2.1
				c-1.2-0.5-2.6-0.8-4.2-0.8s-3,0.3-4.2,0.8s-2.3,1.2-3.1,2.1c-0.8,0.9-1.5,1.9-1.9,3.1c-0.4,1.2-0.7,2.4-0.7,3.6
				c0,1.3,0.2,2.5,0.7,3.6c0.4,1.2,1.1,2.2,1.9,3.1c0.8,0.9,1.9,1.6,3.1,2.1c1.2,0.5,2.6,0.8,4.2,0.8s3-0.3,4.2-0.8
				c1.2-0.5,2.3-1.2,3.1-2.1c0.8-0.9,1.5-1.9,1.9-3.1c0.2-0.6,0.4-1.2,0.5-1.8h-5.7V56.7z"/>
			<polygon points="95.6,49 96.9,49 104.1,39.1 110.6,39.1 101.7,51.1 111.4,64 105,64 97.4,54.2 95.6,54.2 95.6,64 89.8,64 
				89.8,39.1 95.6,39.1 			"/>
		</g>
	</g>
</g>
</svg>
