<?xml version="1.0" encoding="utf-8"?>
<!-- Generator: Adobe Illustrator 21.1.0, SVG Export Plug-In . SVG Version: 6.00 Build 0)  -->
<svg version="1.1" id="Шар_1" xmlns="http://www.w3.org/2000/svg" xmlns:xlink="http://www.w3.org/1999/xlink" x="0px" y="0px"
	 viewBox="0 0 841.9 595.3" style="enable-background:new 0 0 841.9 595.3;" xml:space="preserve">
<style type="text/css">
	.st0{fill:#F4D3BD;}
</style>
<rect x="0" y="138" class="st0" width="841.9" height="293"/>
<g>
	<path d="M115.8,229.4c-3.9-1.6-7.2-2.4-11.4-3v-6.6h36.9v6.6c-4,0.5-6.4,1.3-10.3,2.9v27.6l9.6-0.6c3.9-1.6,5.6-3.4,7.7-7.2
		l10.9-19.1c4.2-7.4,10-11.2,17.3-11.2c4.3,0,6.9,1,9.1,2.4v8.7c-4.2,0-11.6,0.6-17.3,1.6c-0.5,0.8-1.1,1.6-1.6,2.6l-9.1,17
		c-1.6,2.7-3.7,5.1-6.3,6.9c5.6,0.6,9.3,4,11.2,7.2l17.2,28.9c2.7,1.4,7.9,3,11.2,3.5v5.3h-23.4l-19.6-34.3
		c-0.6-1.1-1.9-2.6-3.7-3.9c-2.1-0.5-4.3-0.8-6.4-0.8h-6.9v30.7c3.7,1.6,6.1,2.2,10.1,2.9v5.5h-36.8v-5.3c4.2-0.6,7.5-1.6,11.4-3.2
		V229.4z"/>
	<path d="M248.9,293c-7.2,7.2-13,11.4-23.8,11.4c-13.5,0-22.8-9.1-22.8-21.2c0-12,6.3-23.6,45.7-26.8v-6.7
		c0-17.8-4.7-23.3-15.7-23.3c-2.6,0-5.3,0.2-8.2,0.5l-4,15.9h-12v-19.1c8.3-3,18.1-5.5,27.8-5.5c20.5,0,27.4,12.5,27.4,31.3v36.8
		c0,7.4,2.4,9.8,7.2,9.8c1.3,0,3.5-0.5,4.5-1l1.3,5.5c-2.7,1.9-6.6,3.5-11.9,3.5C256.7,304,250.8,299.9,248.9,293z M248.1,286.2
		v-21.5c-12.2,0.6-20.9,2.2-28.7,5.3c-1.8,2.7-2.4,5.6-2.4,8.5c0,8.8,4.7,15.4,14.8,15.4C238.9,293.9,243.6,290.6,248.1,286.2z"/>
	<path d="M297.7,229.4c-3.9-1.6-7.2-2.6-11.4-3v-6.6h88.9v6.6c-4.2,0.5-7.2,1.4-11.1,3v64.8c3.9,1.6,6.9,2.6,11.1,3.2v5.3h-36.6
		v-5.5c4-0.6,6.6-1.3,10.1-2.9v-65.8h-35.8v65.8c3.7,1.6,6.1,2.2,10.1,2.9v5.5h-36.8v-5.3c4.2-0.6,7.5-1.6,11.4-3.2V229.4z"/>
	<path d="M402,229.4c-3.9-1.6-7.2-2.4-11.4-3v-6.6h36.6v6.6c-4,0.5-6.6,1.3-10.3,2.9v50.6l36.4-51v-9h26.2v6.6
		c-4.2,0.5-7.4,1.4-11.1,3v64.8c3.7,1.6,6.9,2.6,11.1,3.2v5.3h-36.8v-5.5c4-0.6,7.1-1.3,10.6-2.9v-51.2l-36.4,51.2v8.3h-26.3v-5.3
		c4.2-0.6,7.5-1.6,11.4-3.2V229.4z"/>
	<path d="M520.3,294.3v-66.1H505l-3.5,16.9h-9.3v-25.2h72.2V245h-9.3l-3.5-16.9h-16v66.1c3.9,1.6,7.1,2.6,11.2,3.2v5.3H509v-5.3
		C513,296.8,516.4,295.9,520.3,294.3z"/>
	<path d="M618.3,293c-7.2,7.2-13,11.4-23.8,11.4c-13.5,0-22.8-9.1-22.8-21.2c0-12,6.3-23.6,45.7-26.8v-6.7
		c0-17.8-4.7-23.3-15.7-23.3c-2.6,0-5.3,0.2-8.2,0.5l-4,15.9h-12v-19.1c8.3-3,18.1-5.5,27.8-5.5c20.5,0,27.4,12.5,27.4,31.3v36.8
		c0,7.4,2.4,9.8,7.2,9.8c1.3,0,3.5-0.5,4.5-1l1.3,5.5c-2.7,1.9-6.6,3.5-11.9,3.5C626.2,304,620.3,299.9,618.3,293z M617.5,286.2
		v-21.5c-12.2,0.6-20.9,2.2-28.7,5.3c-1.8,2.7-2.4,5.6-2.4,8.5c0,8.8,4.7,15.4,14.8,15.4C608.4,293.9,613,290.6,617.5,286.2z"/>
	<path d="M726.7,294.3c3.9,1.6,7.1,2.6,11.1,3.2v5.3h-36.6v-5.5c4-0.6,6.6-1.3,10.1-2.7v-66h-19.7c-2.9,42.2-11.1,75.4-30.3,75.4
		c-2.7,0-7.2-0.6-10.1-2.1v-9c4.8,0,10.6-0.5,15.7-1.3c8.3-12,12.2-31.8,14.4-62.4c-3.9-1.6-7.2-2.2-11.4-2.9v-6.6h67.9v6.6
		c-4,0.5-7.2,1.4-11.1,3V294.3z"/>
</g>
<g>
	<path d="M262.2,350.7c2.8-3.4,4.1-8.7,4.6-14.7l0.5-6.4c-0.9-0.4-1.7-0.6-2.6-0.7v-1.4h17.5v1.4c-1,0.1-1.7,0.3-2.6,0.7v20.9h2.9
		l-0.3,9.3h-1.6c-0.3-3-0.6-5.1-1.4-6.7c-0.9-0.4-1.8-0.6-3.6-0.6h-8.7c-1.8,0-2.8,0.2-3.7,0.6c-0.9,1.7-1.3,3.8-1.6,6.7h-1.6v-8.6
		C260.8,351.1,261.5,350.9,262.2,350.7z M265.3,350.5H276v-20.9h-6.3l-0.4,6.3C268.8,342,267.7,347.1,265.3,350.5z"/>
	<path d="M285.5,352.4v-1.3c1-0.1,1.7-0.3,2.6-0.6v-20.9c-0.9-0.4-1.6-0.6-2.6-0.7v-1.4h17.5l0.2,6.9H301l-1.3-4.9h-7.9v9h7.6v2.1
		h-7.6v9.9h8.4l1.5-4.6h2.3l-0.4,6.6H285.5z"/>
	<path d="M306.7,352.1v-2.6c1.4,0,2.7-0.1,4.1-0.3c1.6-2.6,2.7-7,3.1-13.1l0.5-6.5c-0.9-0.4-1.7-0.6-2.6-0.7v-1.4h17.6v1.4
		c-1,0.1-1.7,0.3-2.6,0.7v20.9c0.9,0.4,1.6,0.5,2.6,0.7v1.3h-8.8v-1.3c1-0.1,1.8-0.3,2.7-0.7v-20.9h-6.3l-0.5,6.7
		c-0.8,10.4-3.6,16.6-7.4,16.6C308,352.8,307.2,352.5,306.7,352.1z"/>
	<path d="M344,327.2c6.5,0,11,5.5,11,12.8c0,7.4-4.6,12.7-11.4,12.7c-6.9,0-11.2-5.6-11.2-12.8C332.4,332.9,336.6,327.2,344,327.2z
		 M344.6,350.8c1.2,0,2.4-0.2,3.6-0.8c1.8-1.8,3-4.3,3-9c0-7.4-3.3-11.6-8.5-11.6c-1.4,0-2.7,0.4-3.9,1.1c-1.8,1.9-2.6,4.6-2.6,8.6
		C336.2,347,340.1,350.8,344.6,350.8z"/>
	<path d="M358.1,351.1c1-0.1,1.7-0.3,2.6-0.6v-20.9c-0.9-0.4-1.6-0.6-2.6-0.7v-1.4h8.7c5.7,0,8.5,2.7,8.5,5.9c0,2.4-1.6,4.5-4.1,5.7
		c3.2,0.6,5.5,3,5.5,6c0,5.1-4.7,7.3-9.8,7.3h-8.9V351.1z M364.3,329.5v9.4l4.8-0.3c1.8-1.1,2.7-2.7,2.7-4.8c0-2.3-1.8-4.3-5.1-4.3
		H364.3z M364.3,340.4v10.1h2.6c1.5,0,3-0.2,4.8-1.1c1-1.3,1.4-2.5,1.4-4c0-3.3-2.1-5-5.3-5H364.3z"/>
	<path d="M391.2,327.2c6.5,0,11,5.5,11,12.8c0,7.4-4.6,12.7-11.4,12.7c-6.9,0-11.2-5.6-11.2-12.8
		C379.7,332.9,383.8,327.2,391.2,327.2z M391.9,350.8c1.2,0,2.4-0.2,3.6-0.8c1.8-1.8,3-4.3,3-9c0-7.4-3.3-11.6-8.5-11.6
		c-1.4,0-2.7,0.4-3.9,1.1c-1.8,1.9-2.6,4.6-2.6,8.6C383.5,347,387.3,350.8,391.9,350.8z"/>
	<path d="M420.3,351.1c0.9-0.1,1.7-0.3,2.6-0.6v-16.6l-11.2,14.6v1.9c0.9,0.4,1.6,0.5,2.5,0.7v1.3h-8.8v-1.3c1-0.1,1.7-0.3,2.6-0.6
		v-20.9c-0.9-0.4-1.6-0.6-2.6-0.7v-1.4h8.7v1.4c-0.9,0.1-1.6,0.3-2.5,0.7v16.3l11.2-14.6v-1.6c-0.9-0.4-1.6-0.6-2.6-0.7v-1.4h8.8
		v1.4c-1,0.1-1.7,0.3-2.6,0.7v20.9c0.9,0.4,1.7,0.5,2.6,0.7v1.3h-8.7V351.1z M414.9,323.8c0.7,0.3,1.5,0.4,2.3,0.4
		c0.9,0,1.6-0.1,2.3-0.4c0.5-0.7,0.7-1.6,0.8-2.6h2.5c0,3.1-2.3,4.4-5.5,4.4c-3.3,0-5.5-1.3-5.5-4.4h2.5
		C414.2,322.2,414.4,323.1,414.9,323.8z"/>
	<path d="M460.5,350.5c0.9,0.4,1.7,0.5,2.6,0.7v1.3h-8.7v-1.3c0.9-0.1,1.7-0.3,2.6-0.6v-20.9h-11.2v20.9c0.9,0.4,1.6,0.5,2.5,0.7
		v1.3h-8.8v-1.3c1-0.1,1.7-0.3,2.6-0.6v-20.9c-0.9-0.4-1.6-0.6-2.6-0.7v-1.4h23.7v1.4c-1,0.1-1.7,0.3-2.6,0.7V350.5z"/>
	<path d="M477.7,327.2c6.5,0,11,5.5,11,12.8c0,7.4-4.6,12.7-11.4,12.7c-6.9,0-11.2-5.6-11.2-12.8
		C466.2,332.9,470.3,327.2,477.7,327.2z M478.3,350.8c1.2,0,2.4-0.2,3.5-0.8c1.8-1.8,3-4.3,3-9c0-7.4-3.3-11.6-8.5-11.6
		c-1.4,0-2.7,0.4-3.9,1.1c-1.8,1.9-2.6,4.6-2.6,8.6C470,347,473.8,350.8,478.3,350.8z"/>
	<path d="M494.5,329.6c-0.9-0.4-1.6-0.6-2.6-0.7v-1.4h8.6c6.8,0,9.5,3,9.5,7.1c0,4.3-3,7.9-8.3,7.9c-1.2,0-2.4-0.2-3.5-0.5v8.5
		c0.9,0.4,1.6,0.5,2.6,0.7v1.3h-8.8v-1.3c1-0.1,1.8-0.3,2.7-0.7V329.6z M498.1,329.4v10.8c0.8,0.3,1.7,0.4,2.6,0.4
		c1.4,0,2.9-0.3,4.1-1c1.1-1.4,1.5-2.9,1.5-4.8c0-3.5-1.7-5.3-6-5.3H498.1z"/>
	<path d="M520.9,329.6h-4.8l-1,4.9h-2.2v-7h19.7v7h-2.2l-1.1-4.9h-4.9v20.9c0.9,0.4,1.6,0.5,2.6,0.7v1.3h-8.8v-1.3
		c1-0.1,1.8-0.3,2.7-0.7V329.6z"/>
	<path d="M543.4,327.5h3l8.6,22.9c0.9,0.4,1.7,0.6,2.6,0.7v1.3h-9.1v-1.3c1-0.1,1.7-0.3,2.6-0.7l-2.2-5.9h-9.7l-2.2,5.9
		c0.9,0.4,1.6,0.6,2.5,0.7v1.3h-7.5v-1.3c1-0.1,1.7-0.3,2.6-0.7L543.4,327.5z M539.9,342.6h8.3l-4.1-11.4L539.9,342.6z"/>
	<path d="M559.5,352.1v-2.6c1.4,0,2.7-0.1,4.1-0.3c1.6-2.6,2.7-7,3.1-13.1l0.5-6.5c-0.9-0.4-1.7-0.6-2.6-0.7v-1.4h17.6v1.4
		c-1,0.1-1.7,0.3-2.6,0.7v20.9c0.9,0.4,1.6,0.5,2.6,0.7v1.3h-8.8v-1.3c1-0.1,1.8-0.3,2.7-0.7v-20.9h-6.3l-0.5,6.7
		c-0.8,10.4-3.6,16.6-7.4,16.6C560.8,352.8,560,352.5,559.5,352.1z"/>
</g>
</svg>
