<?xml version="1.0" encoding="utf-8"?>
<!-- Generator: Adobe Illustrator 16.0.3, SVG Export Plug-In . SVG Version: 6.00 Build 0)  -->
<!DOCTYPE svg PUBLIC "-//W3C//DTD SVG 1.1//EN" "http://www.w3.org/Graphics/SVG/1.1/DTD/svg11.dtd">
<svg version="1.1" id="Layer_1" xmlns="http://www.w3.org/2000/svg" xmlns:xlink="http://www.w3.org/1999/xlink" x="0px" y="0px"
	 width="172px" height="48px" viewBox="0 0 172 48" enable-background="new 0 0 172 48" xml:space="preserve">
<path fill="#EC001E" d="M117.2,46.9h-4.6l1-4.7h4.6L117.2,46.9z M121.6,46.9l3.5-16.9h4.3l-0.5,2.5h0.1c0.8-0.9,1.6-1.6,2.4-2
	c1.3-0.7,2.6-0.9,3.7-0.9c0.9,0,2.5,0.1,3.7,1.4c0.9,1,1.1,2.2,1.1,3.2c0,0.6-0.1,1.1-0.1,1.5l-2.3,11.4H133l2.1-10.3
	c0.1-0.3,0.1-0.7,0.1-1.1c0-0.7-0.2-1.3-0.7-1.7c-0.3-0.3-0.8-0.6-1.7-0.6c-1,0-2,0.3-2.9,1c-1.3,1-1.8,2.3-2.1,3.5l-1.9,9.2H121.6z
	 M146,40c-0.1,0.3-0.1,0.4-0.1,0.7c0,1,0.5,1.9,1.2,2.4c1.1,0.8,2.5,0.9,3.2,0.9c1,0,2-0.1,2.9-0.4c0.9-0.2,1.7-0.5,2.7-0.8
	l-0.7,3.4c-1.9,0.7-3.9,1.1-5.9,1.1c-2,0-4.4-0.5-5.9-1.8c-1-0.9-2.1-2.5-2.1-5.3c0-2.5,0.8-5.1,2.9-7.3c1.8-1.8,4.4-3.2,7.6-3.2
	c2.6,0,4.1,1.1,5,2.1c0.8,0.9,1.5,2.3,1.5,4.4c0,0.9-0.2,1.9-0.3,2.7l-0.2,1.3H146z M153.6,36.7c0.1-0.3,0.1-0.7,0.1-1.1
	c0-0.7-0.1-1.4-0.6-2c-0.4-0.5-1.1-0.9-2.2-0.9c-1.2,0-2.1,0.5-2.8,1.3c-0.4,0.4-1.1,1.3-1.5,2.7H153.6z M159.7,32.8l0.6-2.8h2.7
	l0.8-3.9l4.5-0.5l-1,4.5h4l-0.6,2.8h-4l-1.6,8.1c-0.1,0.4-0.2,1-0.2,1.5c0,0.5,0.1,0.9,0.4,1.2c0.4,0.3,1,0.4,1.3,0.4
	c0.7,0,1.5-0.2,1.9-0.3l-0.7,3.2c-1,0.2-2.3,0.4-3.3,0.4c-1.3,0-2.5-0.3-3.3-1c-0.8-0.7-1.1-1.7-1.1-2.7c0-0.6,0.1-1.2,0.2-1.6
	l1.8-9.1H159.7z"/>
<path fill="#00123F" d="M58.9,23l-4.7,24h-8.8l3.4-17.2h-4.3l-0.8,4C42.5,39.5,41.6,47,32.9,47c-1.4,0-3.1-0.2-4.4-0.6l1.2-5.9
	c0.5,0.1,1.4,0.2,1.9,0.2c0.9,0,1.8-0.5,2.4-1.5c0.5-0.7,1.2-2.3,2.4-8.4L38,23H58.9z M71,23h-8.8l-1.3,7h8.9L71,23z M58,44.2
	L57.5,47h8.8l3.2-16.3C62,31.6,59.3,37.4,58,44.2z M109.8,47h-9.3l-0.6-5h-7l-2.5,5h-8.8l12.8-24h11.9L109.8,47z M100,36.2L99.1,29
	H99l-3.9,7.2H100z M87.6,30l3.6-7H74.3l-4.7,24h8.8l3.4-17H87.6z"/>
<g>
	<circle fill-rule="evenodd" clip-rule="evenodd" fill="#FFFFFF" cx="16" cy="16" r="16"/>
	<path fill-rule="evenodd" clip-rule="evenodd" fill="#EC001E" d="M13.2,31.8c-1.9-0.3-3.6-1-5.2-1.9c4-0.2,9.7-1.8,10.6-6.3
		c0.1-0.6,0.1-1.1,0-1.5c3.9-0.1,10.1-1.7,10.9-6.4c0.7-4.2-4.5-5.6-5.8-8.9c-0.4-1.2-0.4-3.4,0.6-4.3c5.5,3.3,8.6,9.7,7.5,16.4
		C30.2,27.4,21.9,33.3,13.2,31.8L13.2,31.8z M7.6,29.7c-5.4-3.4-8.6-9.8-7.4-16.5c1.5-8.6,9.8-14.5,18.5-13c1.8,0.4,3.6,1,5.1,1.9
		C20,2.3,14.2,3.9,13.4,8.4c-0.1,0.6-0.1,1.1,0,1.6c-4,0.1-10.1,1.6-10.9,6.3c-0.7,4.3,4.5,5.6,5.8,8.9C8.7,26.5,8.7,28.7,7.6,29.7
		L7.6,29.7z M13.5,10.2c0.7,2.9,4.7,4.4,5.7,7.2c0.4,1.2,0.4,3.5-0.7,4.4c-0.7-2.9-4.7-4.4-5.7-7.2C12.3,13.4,12.3,11.2,13.5,10.2
		L13.5,10.2z"/>
</g>
</svg>
