<?xml version="1.0" encoding="utf-8"?>
<!-- Generator: Adobe Illustrator 21.1.0, SVG Export Plug-In . SVG Version: 6.00 Build 0)  -->
<svg version="1.1" id="Layer_1" xmlns="http://www.w3.org/2000/svg" xmlns:xlink="http://www.w3.org/1999/xlink" x="0px" y="0px"
	 viewBox="0 0 225 114.3" style="enable-background:new 0 0 225 114.3;" xml:space="preserve">
<g>
	<path d="M76.4,44.7c-4.6,0-8.6,2.7-10.5,4.7c-2.4-3.2-6-4.7-10.4-4.7c-3.8,0-7.4,2.3-9,4.2v-3.3h-7.9v33.9h9V55.3
		c1.1-1.3,3.4-2.8,5.8-2.8c3.9,0,6.1,1.9,6.1,6.6v20.5h9V58.3c0-1-0.1-1.9-0.2-2.8c1.1-1.4,3.6-3,6-3c3.9,0,6.1,1.9,6.1,6.6v20.5h9
		V58.3C89.3,48.8,83.7,44.7,76.4,44.7z"/>
	<path d="M132,44.7c-4.1,0-7.7,2-9.6,4.1v-3.1h-7.9v33.9h9V55.4c1.1-1.4,3.6-2.9,6.3-2.9c4.1,0,6.7,1.9,6.7,6.6v20.5h9V58.3
		C145.4,48.8,139.8,44.7,132,44.7z"/>
	<rect x="97.5" y="33.7" width="9" height="33.7"/>
	<path d="M102,70.7c-3.1,0-5.1,2.2-5.1,4.9c0,2.7,2,4.9,5.1,4.9c3.1,0,5.1-2.2,5.1-4.9C107,72.9,105,70.7,102,70.7z"/>
	<path d="M177.5,33.8v13.7c-1.8-1.4-5.5-2.8-9.1-2.8c-9.6,0-17.3,7.8-17.3,17.9c0,10.7,7.6,17.9,17.2,17.9c4.6,0,8.3-1.8,10.2-4v3.1
		h7.9V33.8H177.5z M177.5,69.8c-1.4,1.6-4.2,2.9-7.7,2.9c-5.7,0-9.7-4-9.7-10.1c0-6.2,4.3-10.1,9.8-10.1c3.2,0,6.3,1.3,7.6,2.7V69.8
		z"/>
</g>
</svg>
