<?xml version="1.0" encoding="utf-8"?>
<!-- Generator: Adobe Illustrator 21.1.0, SVG Export Plug-In . SVG Version: 6.00 Build 0)  -->
<svg version="1.1" id="Слой_1" xmlns="http://www.w3.org/2000/svg" xmlns:xlink="http://www.w3.org/1999/xlink" x="0px" y="0px"
	 viewBox="0 0 1200 700" style="enable-background:new 0 0 1200 700;" xml:space="preserve">
<style type="text/css">
	.st0{clip-path:url(#SVGID_2_);fill:url(#SVGID_3_);}
	.st1{clip-path:url(#SVGID_5_);fill:url(#SVGID_6_);}
	.st2{clip-path:url(#SVGID_8_);fill:url(#SVGID_9_);}
	.st3{clip-path:url(#SVGID_11_);fill:url(#SVGID_12_);}
	.st4{clip-path:url(#SVGID_14_);fill:url(#SVGID_15_);}
	.st5{clip-path:url(#SVGID_17_);fill:url(#SVGID_18_);}
	.st6{fill:#FFFFFF;}
	.st7{clip-path:url(#SVGID_20_);fill:url(#SVGID_21_);}
	.st8{clip-path:url(#SVGID_23_);fill:url(#SVGID_24_);}
	.st9{clip-path:url(#SVGID_26_);fill:url(#SVGID_27_);}
	.st10{clip-path:url(#SVGID_29_);fill:url(#SVGID_30_);}
	.st11{clip-path:url(#SVGID_32_);fill:url(#SVGID_33_);}
	.st12{clip-path:url(#SVGID_35_);fill:url(#SVGID_36_);}
	.st13{fill:#58595B;}
	.st14{clip-path:url(#SVGID_38_);fill:url(#SVGID_39_);}
	.st15{clip-path:url(#SVGID_41_);fill:url(#SVGID_42_);}
	.st16{clip-path:url(#SVGID_44_);fill:url(#SVGID_45_);}
	.st17{clip-path:url(#SVGID_47_);fill:url(#SVGID_48_);}
	.st18{clip-path:url(#SVGID_50_);fill:url(#SVGID_51_);}
	.st19{clip-path:url(#SVGID_53_);fill:url(#SVGID_54_);}
</style>
<g>
	<rect x="174" y="143" width="832.3" height="123.7"/>
	<g>
		<g>
			<defs>
				<path id="SVGID_1_" d="M253.9,167.2h20.4c-7.1,1.2-13.9,3.1-20.4,5.8V167.2z"/>
			</defs>
			<clipPath id="SVGID_2_">
				<use xlink:href="#SVGID_1_"  style="overflow:visible;"/>
			</clipPath>
			<linearGradient id="SVGID_3_" gradientUnits="userSpaceOnUse" x1="200.5388" y1="202.362" x2="275.4543" y2="202.362">
				<stop  offset="0" style="stop-color:#E4BB60"/>
				<stop  offset="0.2171" style="stop-color:#E4C062"/>
				<stop  offset="0.5235" style="stop-color:#E7CC68"/>
				<stop  offset="0.8815" style="stop-color:#EAE072"/>
				<stop  offset="1" style="stop-color:#ECE977"/>
			</linearGradient>
			<rect x="200.5" y="167.2" class="st0" width="74.9" height="70.4"/>
		</g>
		<g>
			<defs>
				<path id="SVGID_4_" d="M249.8,167.2v7.6c-3.7,1.7-7.2,3.7-10.7,5.9c-4.7,3-9.1,6.5-13.3,10.4v-23.9H249.8z"/>
			</defs>
			<clipPath id="SVGID_5_">
				<use xlink:href="#SVGID_4_"  style="overflow:visible;"/>
			</clipPath>
			<linearGradient id="SVGID_6_" gradientUnits="userSpaceOnUse" x1="200.5388" y1="202.362" x2="275.4543" y2="202.362">
				<stop  offset="0" style="stop-color:#E4BB60"/>
				<stop  offset="0.2171" style="stop-color:#E4C062"/>
				<stop  offset="0.5235" style="stop-color:#E7CC68"/>
				<stop  offset="0.8815" style="stop-color:#EAE072"/>
				<stop  offset="1" style="stop-color:#ECE977"/>
			</linearGradient>
			<rect x="200.5" y="167.2" class="st1" width="74.9" height="70.4"/>
		</g>
		<g>
			<defs>
				<path id="SVGID_7_" d="M274,172c-0.5,0.1-1,0.2-1.4,0.3c-0.5,0.1-0.9,0.2-1.4,0.3c-0.5,0.1-0.9,0.2-1.4,0.3
					c-0.5,0.1-0.9,0.2-1.4,0.3c-5.2,1.3-10.1,2.9-14.5,4.9v59.5h21.6v-65.8C275,171.8,274.5,171.9,274,172z"/>
			</defs>
			<clipPath id="SVGID_8_">
				<use xlink:href="#SVGID_7_"  style="overflow:visible;"/>
			</clipPath>
			<linearGradient id="SVGID_9_" gradientUnits="userSpaceOnUse" x1="266.8483" y1="243.5666" x2="209.1448" y2="161.1574">
				<stop  offset="0" style="stop-color:#9AD1F0"/>
				<stop  offset="9.703940e-02" style="stop-color:#8CC1E2"/>
				<stop  offset="0.3333" style="stop-color:#73A6CB"/>
				<stop  offset="0.5658" style="stop-color:#6296BD"/>
				<stop  offset="0.7909" style="stop-color:#588DB4"/>
				<stop  offset="1" style="stop-color:#548AB2"/>
			</linearGradient>
			<rect x="200.5" y="167.2" class="st2" width="74.9" height="70.4"/>
		</g>
		<g>
			<defs>
				<path id="SVGID_10_" d="M225.8,237.5h23.9v-57.6c-9.8,4.7-17.7,10.7-23.9,16.8V237.5z"/>
			</defs>
			<clipPath id="SVGID_11_">
				<use xlink:href="#SVGID_10_"  style="overflow:visible;"/>
			</clipPath>
			<linearGradient id="SVGID_12_" gradientUnits="userSpaceOnUse" x1="266.8483" y1="243.5666" x2="209.1448" y2="161.1574">
				<stop  offset="0" style="stop-color:#9AD1F0"/>
				<stop  offset="9.703940e-02" style="stop-color:#8CC1E2"/>
				<stop  offset="0.3333" style="stop-color:#73A6CB"/>
				<stop  offset="0.5658" style="stop-color:#6296BD"/>
				<stop  offset="0.7909" style="stop-color:#588DB4"/>
				<stop  offset="1" style="stop-color:#548AB2"/>
			</linearGradient>
			<rect x="200.5" y="167.2" class="st3" width="74.9" height="70.4"/>
		</g>
		<g>
			<defs>
				<path id="SVGID_13_" d="M216.9,206.6c-0.2,0.2-0.3,0.4-0.5,0.7c-0.1,0.1-0.1,0.2-0.2,0.3c-0.2,0.2-0.4,0.5-0.5,0.7
					c-0.1,0.1-0.2,0.2-0.2,0.3v0c-0.2,0.2-0.4,0.5-0.5,0.7c0,0,0,0,0,0c-0.2,0.2-0.3,0.5-0.5,0.7c0,0,0,0,0,0
					c-0.2,0.2-0.3,0.5-0.5,0.7c0,0,0,0,0,0c-0.3,0.5-0.7,1-1,1.4v0c-3.4,5-5.9,9.7-7.7,13.5c0,0,0,0,0,0c-0.3,0.5-0.5,1.1-0.7,1.6
					c0,0,0,0,0,0c-0.1,0.2-0.1,0.3-0.2,0.5c0,0,0,0,0,0c-0.1,0.2-0.1,0.3-0.2,0.5c0,0,0,0,0,0c-0.1,0.2-0.1,0.3-0.2,0.5v0
					c-0.1,0.2-0.1,0.3-0.2,0.5c0,0,0,0,0,0c-0.1,0.2-0.1,0.3-0.2,0.5c0,0,0,0,0,0c-0.1,0.2-0.1,0.3-0.2,0.5c0,0,0,0,0,0
					c-0.1,0.2-0.1,0.3-0.2,0.5c0,0,0,0,0,0c-0.1,0.1-0.1,0.3-0.2,0.4v0c-0.1,0.1-0.1,0.3-0.2,0.4c0,0,0,0,0,0
					c-0.1,0.1-0.1,0.3-0.2,0.4c0,0,0,0,0,0c-0.1,0.1-0.1,0.3-0.2,0.4c0,0,0,0,0,0c-0.1,0.3-0.2,0.5-0.3,0.8
					c-0.1,0.2-0.2,0.5-0.3,0.7c-0.1,0.2-0.2,0.5-0.2,0.7c-0.1,0.2-0.1,0.4-0.2,0.6c0,0.1-0.1,0.2-0.1,0.3c-0.1,0.2-0.1,0.3-0.2,0.5
					c0,0.1-0.1,0.2-0.1,0.2c-0.1,0.3-0.2,0.5-0.2,0.8c-0.1,0.4-0.2,0.6-0.2,0.6h21.2v-36.7c-1.6,1.7-3,3.4-4.3,5.1
					C217.2,206.2,217.1,206.4,216.9,206.6z"/>
			</defs>
			<clipPath id="SVGID_14_">
				<use xlink:href="#SVGID_13_"  style="overflow:visible;"/>
			</clipPath>
			<linearGradient id="SVGID_15_" gradientUnits="userSpaceOnUse" x1="266.8483" y1="243.5666" x2="209.1448" y2="161.1574">
				<stop  offset="0" style="stop-color:#9AD1F0"/>
				<stop  offset="9.703940e-02" style="stop-color:#8CC1E2"/>
				<stop  offset="0.3333" style="stop-color:#73A6CB"/>
				<stop  offset="0.5658" style="stop-color:#6296BD"/>
				<stop  offset="0.7909" style="stop-color:#588DB4"/>
				<stop  offset="1" style="stop-color:#548AB2"/>
			</linearGradient>
			<rect x="200.5" y="167.2" class="st4" width="74.9" height="70.4"/>
		</g>
		<g>
			<defs>
				<path id="SVGID_16_" d="M221.8,167.2v27.9c-1.9,1.9-3.6,4-5.4,6.1c-1.8,2.3-3.5,4.5-5,6.7c-0.3,0.4-0.6,0.9-0.9,1.3v0
					c-0.3,0.4-0.6,0.8-0.8,1.2c-2.4,3.7-4.2,7-5.5,9.6c-1.5,2.9-2.5,5.3-3.1,6.7c-0.1,0.3-0.2,0.6-0.3,0.8c0,0.1,0,0.1-0.1,0.2
					c0,0,0,0,0,0c-0.1,0.3-0.2,0.5-0.2,0.6v-61.1H221.8z"/>
			</defs>
			<clipPath id="SVGID_17_">
				<use xlink:href="#SVGID_16_"  style="overflow:visible;"/>
			</clipPath>
			<linearGradient id="SVGID_18_" gradientUnits="userSpaceOnUse" x1="200.5388" y1="202.362" x2="275.4543" y2="202.362">
				<stop  offset="0" style="stop-color:#E4BB60"/>
				<stop  offset="0.2171" style="stop-color:#E4C062"/>
				<stop  offset="0.5235" style="stop-color:#E7CC68"/>
				<stop  offset="0.8815" style="stop-color:#EAE072"/>
				<stop  offset="1" style="stop-color:#ECE977"/>
			</linearGradient>
			<rect x="200.5" y="167.2" class="st5" width="74.9" height="70.4"/>
		</g>
	</g>
	<g>
		<path class="st6" d="M318,236.5h-9.9v-69.5H341c13.5,0,21.6,8.3,21.6,19.5c0,9.7-5.8,20.7-21.6,20.7h-23V236.5z M318,199.2h19.6
			c8.8,0,14.9-3.2,14.9-12.5c0-8.7-6.3-11.6-14.5-11.6h-20V199.2z"/>
		<path class="st6" d="M426,167.1v8.3h-41.5v20.4h23.7c15.9,0,21.9,11.6,21.9,21.2c0,11.2-8.4,19.5-21.6,19.5h-33.9v-69.5H426z
			 M384.4,228.2h21.1c8.1,0,14.4-2.6,14.4-11.3c0-9.4-6.2-12.8-15.1-12.8h-20.4V228.2z"/>
		<path class="st6" d="M451.9,200.8l35.4-33.7h13.6l-30.4,28l31.2,41.4h-12.8l-25.5-34.8l-11.5,10.4v24.4H442v-69.5h9.9V200.8z"/>
		<path class="st6" d="M544.6,212.5h-24.8v-7h24.8V212.5z"/>
		<path class="st6" d="M626,167.1l-27.4,58.5c-4.9,10.6-9.9,12.9-15.8,12.9c-2.5,0-7.2,0.7-9.2,0.3V231c1.7,0.3,5.4-0.7,7.8-0.7
			c3.7,0,4.7-1.1,8-6.7l-28.3-56.5h10.6l22.4,47.4l21.2-47.4H626z"/>
		<path class="st6" d="M644.8,200.8l35.4-33.7h13.6l-30.4,28l31.2,41.4h-12.8l-25.5-34.8l-11.5,10.4v24.4H635v-69.5h9.9V200.8z"/>
		<path class="st6" d="M712.7,236.5h-9.9v-69.5h32.9c13.5,0,21.6,8.3,21.6,19.5c0,9.7-5.8,20.7-21.6,20.7h-23V236.5z M712.7,199.2
			h19.6c8.8,0,14.9-3.2,14.9-12.5c0-8.7-6.3-11.6-14.5-11.6h-20V199.2z"/>
		<path class="st6" d="M771.5,216.3l-7.6,20.3h-10.2l27.5-69.5h11.2l26.3,69.5h-10.8l-7.2-20.3H771.5z M797.1,208l-10.8-30.6h-0.2
			L774.5,208H797.1z"/>
		<path class="st6" d="M821.6,161.5v-7.6h8.9v7.6H821.6z M839,236.5h-9.9v-69.5h9.9V236.5z M837.6,161.5v-7.6h8.9v7.6H837.6z"/>
		<path class="st6" d="M865.5,195.8h38.1v-28.7h9.9v69.5h-9.9v-32.4h-38.1v32.4h-9.9v-69.5h9.9V195.8z"/>
		<path class="st6" d="M940.1,216.3l-7.6,20.3h-10.2l27.5-69.5h11.2l26.3,69.5h-10.8l-7.2-20.3H940.1z M965.7,208L955,177.4h-0.2
			L943.1,208H965.7z"/>
	</g>
</g>
<g>
	<g>
		<g>
			<defs>
				<path id="SVGID_19_" d="M250.9,319.3h20.4c-7.1,1.2-13.9,3.1-20.4,5.8V319.3z"/>
			</defs>
			<clipPath id="SVGID_20_">
				<use xlink:href="#SVGID_19_"  style="overflow:visible;"/>
			</clipPath>
			<linearGradient id="SVGID_21_" gradientUnits="userSpaceOnUse" x1="197.6242" y1="354.4409" x2="272.5398" y2="354.4409">
				<stop  offset="0" style="stop-color:#E4BB60"/>
				<stop  offset="0.2171" style="stop-color:#E4C062"/>
				<stop  offset="0.5235" style="stop-color:#E7CC68"/>
				<stop  offset="0.8815" style="stop-color:#EAE072"/>
				<stop  offset="1" style="stop-color:#ECE977"/>
			</linearGradient>
			<rect x="197.6" y="319.3" class="st7" width="74.9" height="70.4"/>
		</g>
		<g>
			<defs>
				<path id="SVGID_22_" d="M246.9,319.3v7.6c-3.7,1.7-7.2,3.7-10.7,5.9c-4.7,3-9.1,6.5-13.3,10.4v-23.9H246.9z"/>
			</defs>
			<clipPath id="SVGID_23_">
				<use xlink:href="#SVGID_22_"  style="overflow:visible;"/>
			</clipPath>
			<linearGradient id="SVGID_24_" gradientUnits="userSpaceOnUse" x1="197.6242" y1="354.4409" x2="272.5398" y2="354.4409">
				<stop  offset="0" style="stop-color:#E4BB60"/>
				<stop  offset="0.2171" style="stop-color:#E4C062"/>
				<stop  offset="0.5235" style="stop-color:#E7CC68"/>
				<stop  offset="0.8815" style="stop-color:#EAE072"/>
				<stop  offset="1" style="stop-color:#ECE977"/>
			</linearGradient>
			<rect x="197.6" y="319.3" class="st8" width="74.9" height="70.4"/>
		</g>
		<g>
			<defs>
				<path id="SVGID_25_" d="M271.1,324c-0.5,0.1-1,0.2-1.4,0.3c-0.5,0.1-0.9,0.2-1.4,0.3c-0.5,0.1-0.9,0.2-1.4,0.3
					c-0.5,0.1-0.9,0.2-1.4,0.3c-5.2,1.3-10.1,2.9-14.5,4.9v59.5h21.6v-65.8C272.1,323.9,271.6,324,271.1,324z"/>
			</defs>
			<clipPath id="SVGID_26_">
				<use xlink:href="#SVGID_25_"  style="overflow:visible;"/>
			</clipPath>
			<linearGradient id="SVGID_27_" gradientUnits="userSpaceOnUse" x1="263.9337" y1="395.6455" x2="206.2303" y2="313.2364">
				<stop  offset="0" style="stop-color:#9AD1F0"/>
				<stop  offset="9.703940e-02" style="stop-color:#8CC1E2"/>
				<stop  offset="0.3333" style="stop-color:#73A6CB"/>
				<stop  offset="0.5658" style="stop-color:#6296BD"/>
				<stop  offset="0.7909" style="stop-color:#588DB4"/>
				<stop  offset="1" style="stop-color:#548AB2"/>
			</linearGradient>
			<rect x="197.6" y="319.3" class="st9" width="74.9" height="70.4"/>
		</g>
		<g>
			<defs>
				<path id="SVGID_28_" d="M222.9,389.6h23.9V332c-9.8,4.7-17.7,10.7-23.9,16.8V389.6z"/>
			</defs>
			<clipPath id="SVGID_29_">
				<use xlink:href="#SVGID_28_"  style="overflow:visible;"/>
			</clipPath>
			<linearGradient id="SVGID_30_" gradientUnits="userSpaceOnUse" x1="263.9337" y1="395.6455" x2="206.2303" y2="313.2364">
				<stop  offset="0" style="stop-color:#9AD1F0"/>
				<stop  offset="9.703940e-02" style="stop-color:#8CC1E2"/>
				<stop  offset="0.3333" style="stop-color:#73A6CB"/>
				<stop  offset="0.5658" style="stop-color:#6296BD"/>
				<stop  offset="0.7909" style="stop-color:#588DB4"/>
				<stop  offset="1" style="stop-color:#548AB2"/>
			</linearGradient>
			<rect x="197.6" y="319.3" class="st10" width="74.9" height="70.4"/>
		</g>
		<g>
			<defs>
				<path id="SVGID_31_" d="M214,358.7c-0.2,0.2-0.3,0.4-0.5,0.7c-0.1,0.1-0.1,0.2-0.2,0.3c-0.2,0.2-0.4,0.5-0.5,0.7
					c-0.1,0.1-0.2,0.2-0.2,0.3v0c-0.2,0.2-0.4,0.5-0.5,0.7c0,0,0,0,0,0c-0.2,0.2-0.3,0.5-0.5,0.7c0,0,0,0,0,0
					c-0.2,0.2-0.3,0.5-0.5,0.7c0,0,0,0,0,0c-0.3,0.5-0.7,1-1,1.4v0c-3.4,5-5.9,9.7-7.7,13.5c0,0,0,0,0,0c-0.3,0.5-0.5,1.1-0.7,1.6
					c0,0,0,0,0,0c-0.1,0.2-0.1,0.3-0.2,0.5c0,0,0,0,0,0c-0.1,0.2-0.1,0.3-0.2,0.5c0,0,0,0,0,0c-0.1,0.2-0.1,0.3-0.2,0.5v0
					c-0.1,0.2-0.1,0.3-0.2,0.5c0,0,0,0,0,0c-0.1,0.2-0.1,0.3-0.2,0.5c0,0,0,0,0,0c-0.1,0.2-0.1,0.3-0.2,0.5c0,0,0,0,0,0
					c-0.1,0.2-0.1,0.3-0.2,0.5c0,0,0,0,0,0c-0.1,0.1-0.1,0.3-0.2,0.4v0c-0.1,0.1-0.1,0.3-0.2,0.4c0,0,0,0,0,0
					c-0.1,0.1-0.1,0.3-0.2,0.4c0,0,0,0,0,0c-0.1,0.1-0.1,0.3-0.2,0.4c0,0,0,0,0,0c-0.1,0.3-0.2,0.5-0.3,0.8
					c-0.1,0.2-0.2,0.5-0.3,0.7c-0.1,0.2-0.2,0.5-0.2,0.7c-0.1,0.2-0.1,0.4-0.2,0.6c0,0.1-0.1,0.2-0.1,0.3c-0.1,0.2-0.1,0.3-0.2,0.5
					c0,0.1-0.1,0.2-0.1,0.2c-0.1,0.3-0.2,0.5-0.2,0.8c-0.1,0.4-0.2,0.6-0.2,0.6h21.2V353c-1.6,1.7-3,3.4-4.3,5.1
					C214.3,358.3,214.2,358.5,214,358.7z"/>
			</defs>
			<clipPath id="SVGID_32_">
				<use xlink:href="#SVGID_31_"  style="overflow:visible;"/>
			</clipPath>
			<linearGradient id="SVGID_33_" gradientUnits="userSpaceOnUse" x1="263.9337" y1="395.6455" x2="206.2303" y2="313.2364">
				<stop  offset="0" style="stop-color:#9AD1F0"/>
				<stop  offset="9.703940e-02" style="stop-color:#8CC1E2"/>
				<stop  offset="0.3333" style="stop-color:#73A6CB"/>
				<stop  offset="0.5658" style="stop-color:#6296BD"/>
				<stop  offset="0.7909" style="stop-color:#588DB4"/>
				<stop  offset="1" style="stop-color:#548AB2"/>
			</linearGradient>
			<rect x="197.6" y="319.3" class="st11" width="74.9" height="70.4"/>
		</g>
		<g>
			<defs>
				<path id="SVGID_34_" d="M218.8,319.3v27.9c-1.9,1.9-3.6,4-5.4,6.1c-1.8,2.3-3.5,4.5-5,6.7c-0.3,0.4-0.6,0.9-0.9,1.3v0
					c-0.3,0.4-0.6,0.8-0.8,1.2c-2.4,3.7-4.2,7-5.5,9.6c-1.5,2.9-2.5,5.3-3.1,6.7c-0.1,0.3-0.2,0.6-0.3,0.8c0,0.1,0,0.1-0.1,0.2
					c0,0,0,0,0,0c-0.1,0.3-0.2,0.5-0.2,0.6v-61.1H218.8z"/>
			</defs>
			<clipPath id="SVGID_35_">
				<use xlink:href="#SVGID_34_"  style="overflow:visible;"/>
			</clipPath>
			<linearGradient id="SVGID_36_" gradientUnits="userSpaceOnUse" x1="197.6242" y1="354.4409" x2="272.5398" y2="354.4409">
				<stop  offset="0" style="stop-color:#E4BB60"/>
				<stop  offset="0.2171" style="stop-color:#E4C062"/>
				<stop  offset="0.5235" style="stop-color:#E7CC68"/>
				<stop  offset="0.8815" style="stop-color:#EAE072"/>
				<stop  offset="1" style="stop-color:#ECE977"/>
			</linearGradient>
			<rect x="197.6" y="319.3" class="st12" width="74.9" height="70.4"/>
		</g>
	</g>
	<g>
		<path class="st13" d="M314.9,388.7H305v-69.5h32.9c13.5,0,21.6,8.3,21.6,19.5c0,9.7-5.8,20.7-21.6,20.7h-23V388.7z M314.9,351.4
			h19.6c8.8,0,14.9-3.2,14.9-12.5c0-8.7-6.3-11.6-14.5-11.6h-20V351.4z"/>
		<path class="st13" d="M422.9,319.2v8.3h-41.5v20.4h23.7c15.9,0,21.9,11.6,21.9,21.2c0,11.2-8.4,19.5-21.6,19.5h-33.9v-69.5H422.9z
			 M381.4,380.3h21.1c8.1,0,14.4-2.6,14.4-11.3c0-9.4-6.2-12.8-15.1-12.8h-20.4V380.3z"/>
		<path class="st13" d="M448.8,352.9l35.4-33.7h13.6l-30.4,28l31.2,41.4h-12.8l-25.5-34.8l-11.5,10.4v24.4H439v-69.5h9.9V352.9z"/>
		<path class="st13" d="M541.5,364.6h-24.8v-7h24.8V364.6z"/>
		<path class="st13" d="M623,319.2l-27.4,58.5c-4.9,10.6-9.9,12.9-15.8,12.9c-2.5,0-7.2,0.7-9.2,0.3v-7.7c1.7,0.3,5.4-0.7,7.8-0.7
			c3.7,0,4.7-1.1,8-6.7l-28.3-56.5h10.6l22.4,47.4l21.2-47.4H623z"/>
		<path class="st13" d="M641.8,352.9l35.4-33.7h13.6l-30.4,28l31.2,41.4h-12.8l-25.5-34.8l-11.5,10.4v24.4h-9.9v-69.5h9.9V352.9z"/>
		<path class="st13" d="M709.6,388.7h-9.9v-69.5h32.9c13.5,0,21.6,8.3,21.6,19.5c0,9.7-5.8,20.7-21.6,20.7h-23V388.7z M709.6,351.4
			h19.6c8.8,0,14.9-3.2,14.9-12.5c0-8.7-6.3-11.6-14.5-11.6h-20V351.4z"/>
		<path class="st13" d="M768.4,368.4l-7.6,20.3h-10.2l27.5-69.5h11.2l26.3,69.5h-10.8l-7.2-20.3H768.4z M794,360.2l-10.8-30.6h-0.2
			l-11.7,30.6H794z"/>
		<path class="st13" d="M818.6,313.6v-7.6h8.9v7.6H818.6z M835.9,388.7h-9.9v-69.5h9.9V388.7z M834.5,313.6v-7.6h8.9v7.6H834.5z"/>
		<path class="st13" d="M862.4,347.9h38.1v-28.7h9.9v69.5h-9.9v-32.4h-38.1v32.4h-9.9v-69.5h9.9V347.9z"/>
		<path class="st13" d="M937,368.4l-7.6,20.3h-10.2l27.5-69.5h11.2l26.3,69.5h-10.8l-7.2-20.3H937z M962.6,360.2l-10.8-30.6h-0.2
			L940,360.2H962.6z"/>
	</g>
</g>
<g>
	<g>
		<g>
			<defs>
				<path id="SVGID_37_" d="M250.9,489.3h20.4c-7.1,1.2-13.9,3.1-20.4,5.8V489.3z"/>
			</defs>
			<clipPath id="SVGID_38_">
				<use xlink:href="#SVGID_37_"  style="overflow:visible;"/>
			</clipPath>
			<linearGradient id="SVGID_39_" gradientUnits="userSpaceOnUse" x1="197.6242" y1="524.4406" x2="272.5398" y2="524.4406">
				<stop  offset="0" style="stop-color:#E4BB60"/>
				<stop  offset="0.2171" style="stop-color:#E4C062"/>
				<stop  offset="0.5235" style="stop-color:#E7CC68"/>
				<stop  offset="0.8815" style="stop-color:#EAE072"/>
				<stop  offset="1" style="stop-color:#ECE977"/>
			</linearGradient>
			<rect x="197.6" y="489.3" class="st14" width="74.9" height="70.4"/>
		</g>
		<g>
			<defs>
				<path id="SVGID_40_" d="M246.9,489.3v7.6c-3.7,1.7-7.2,3.7-10.7,5.9c-4.7,3-9.1,6.5-13.3,10.4v-23.9H246.9z"/>
			</defs>
			<clipPath id="SVGID_41_">
				<use xlink:href="#SVGID_40_"  style="overflow:visible;"/>
			</clipPath>
			<linearGradient id="SVGID_42_" gradientUnits="userSpaceOnUse" x1="197.6242" y1="524.4406" x2="272.5398" y2="524.4406">
				<stop  offset="0" style="stop-color:#E4BB60"/>
				<stop  offset="0.2171" style="stop-color:#E4C062"/>
				<stop  offset="0.5235" style="stop-color:#E7CC68"/>
				<stop  offset="0.8815" style="stop-color:#EAE072"/>
				<stop  offset="1" style="stop-color:#ECE977"/>
			</linearGradient>
			<rect x="197.6" y="489.3" class="st15" width="74.9" height="70.4"/>
		</g>
		<g>
			<defs>
				<path id="SVGID_43_" d="M271.1,494c-0.5,0.1-1,0.2-1.4,0.3c-0.5,0.1-0.9,0.2-1.4,0.3c-0.5,0.1-0.9,0.2-1.4,0.3
					c-0.5,0.1-0.9,0.2-1.4,0.3c-5.2,1.3-10.1,2.9-14.5,4.9v59.5h21.6v-65.8C272.1,493.9,271.6,494,271.1,494z"/>
			</defs>
			<clipPath id="SVGID_44_">
				<use xlink:href="#SVGID_43_"  style="overflow:visible;"/>
			</clipPath>
			<linearGradient id="SVGID_45_" gradientUnits="userSpaceOnUse" x1="263.9337" y1="565.6451" x2="206.2303" y2="483.236">
				<stop  offset="0" style="stop-color:#9AD1F0"/>
				<stop  offset="9.703940e-02" style="stop-color:#8CC1E2"/>
				<stop  offset="0.3333" style="stop-color:#73A6CB"/>
				<stop  offset="0.5658" style="stop-color:#6296BD"/>
				<stop  offset="0.7909" style="stop-color:#588DB4"/>
				<stop  offset="1" style="stop-color:#548AB2"/>
			</linearGradient>
			<rect x="197.6" y="489.3" class="st16" width="74.9" height="70.4"/>
		</g>
		<g>
			<defs>
				<path id="SVGID_46_" d="M222.9,559.6h23.9V502c-9.8,4.7-17.7,10.7-23.9,16.8V559.6z"/>
			</defs>
			<clipPath id="SVGID_47_">
				<use xlink:href="#SVGID_46_"  style="overflow:visible;"/>
			</clipPath>
			<linearGradient id="SVGID_48_" gradientUnits="userSpaceOnUse" x1="263.9337" y1="565.6451" x2="206.2303" y2="483.236">
				<stop  offset="0" style="stop-color:#9AD1F0"/>
				<stop  offset="9.703940e-02" style="stop-color:#8CC1E2"/>
				<stop  offset="0.3333" style="stop-color:#73A6CB"/>
				<stop  offset="0.5658" style="stop-color:#6296BD"/>
				<stop  offset="0.7909" style="stop-color:#588DB4"/>
				<stop  offset="1" style="stop-color:#548AB2"/>
			</linearGradient>
			<rect x="197.6" y="489.3" class="st17" width="74.9" height="70.4"/>
		</g>
		<g>
			<defs>
				<path id="SVGID_49_" d="M214,528.7c-0.2,0.2-0.3,0.4-0.5,0.7c-0.1,0.1-0.1,0.2-0.2,0.3c-0.2,0.2-0.4,0.5-0.5,0.7
					c-0.1,0.1-0.2,0.2-0.2,0.3v0c-0.2,0.2-0.4,0.5-0.5,0.7c0,0,0,0,0,0c-0.2,0.2-0.3,0.5-0.5,0.7c0,0,0,0,0,0
					c-0.2,0.2-0.3,0.5-0.5,0.7c0,0,0,0,0,0c-0.3,0.5-0.7,1-1,1.4v0c-3.4,5-5.9,9.7-7.7,13.5c0,0,0,0,0,0c-0.3,0.5-0.5,1.1-0.7,1.6
					c0,0,0,0,0,0c-0.1,0.2-0.1,0.3-0.2,0.5c0,0,0,0,0,0c-0.1,0.2-0.1,0.3-0.2,0.5c0,0,0,0,0,0c-0.1,0.2-0.1,0.3-0.2,0.5v0
					c-0.1,0.2-0.1,0.3-0.2,0.5c0,0,0,0,0,0c-0.1,0.2-0.1,0.3-0.2,0.5c0,0,0,0,0,0c-0.1,0.2-0.1,0.3-0.2,0.5c0,0,0,0,0,0
					c-0.1,0.2-0.1,0.3-0.2,0.5c0,0,0,0,0,0c-0.1,0.1-0.1,0.3-0.2,0.4v0c-0.1,0.1-0.1,0.3-0.2,0.4c0,0,0,0,0,0
					c-0.1,0.1-0.1,0.3-0.2,0.4c0,0,0,0,0,0c-0.1,0.1-0.1,0.3-0.2,0.4c0,0,0,0,0,0c-0.1,0.3-0.2,0.5-0.3,0.8
					c-0.1,0.2-0.2,0.5-0.3,0.7c-0.1,0.2-0.2,0.5-0.2,0.7c-0.1,0.2-0.1,0.4-0.2,0.6c0,0.1-0.1,0.2-0.1,0.3c-0.1,0.2-0.1,0.3-0.2,0.5
					c0,0.1-0.1,0.2-0.1,0.2c-0.1,0.3-0.2,0.5-0.2,0.8c-0.1,0.4-0.2,0.6-0.2,0.6h21.2V523c-1.6,1.7-3,3.4-4.3,5.1
					C214.3,528.3,214.2,528.5,214,528.7z"/>
			</defs>
			<clipPath id="SVGID_50_">
				<use xlink:href="#SVGID_49_"  style="overflow:visible;"/>
			</clipPath>
			<linearGradient id="SVGID_51_" gradientUnits="userSpaceOnUse" x1="263.9337" y1="565.6451" x2="206.2303" y2="483.236">
				<stop  offset="0" style="stop-color:#9AD1F0"/>
				<stop  offset="9.703940e-02" style="stop-color:#8CC1E2"/>
				<stop  offset="0.3333" style="stop-color:#73A6CB"/>
				<stop  offset="0.5658" style="stop-color:#6296BD"/>
				<stop  offset="0.7909" style="stop-color:#588DB4"/>
				<stop  offset="1" style="stop-color:#548AB2"/>
			</linearGradient>
			<rect x="197.6" y="489.3" class="st18" width="74.9" height="70.4"/>
		</g>
		<g>
			<defs>
				<path id="SVGID_52_" d="M218.8,489.3v27.9c-1.9,1.9-3.6,4-5.4,6.1c-1.8,2.3-3.5,4.5-5,6.7c-0.3,0.4-0.6,0.9-0.9,1.3v0
					c-0.3,0.4-0.6,0.8-0.8,1.2c-2.4,3.7-4.2,7-5.5,9.6c-1.5,2.9-2.5,5.3-3.1,6.7c-0.1,0.3-0.2,0.6-0.3,0.8c0,0.1,0,0.1-0.1,0.2
					c0,0,0,0,0,0c-0.1,0.3-0.2,0.5-0.2,0.6v-61.1H218.8z"/>
			</defs>
			<clipPath id="SVGID_53_">
				<use xlink:href="#SVGID_52_"  style="overflow:visible;"/>
			</clipPath>
			<linearGradient id="SVGID_54_" gradientUnits="userSpaceOnUse" x1="197.6242" y1="524.4406" x2="272.5398" y2="524.4406">
				<stop  offset="0" style="stop-color:#E4BB60"/>
				<stop  offset="0.2171" style="stop-color:#E4C062"/>
				<stop  offset="0.5235" style="stop-color:#E7CC68"/>
				<stop  offset="0.8815" style="stop-color:#EAE072"/>
				<stop  offset="1" style="stop-color:#ECE977"/>
			</linearGradient>
			<rect x="197.6" y="489.3" class="st19" width="74.9" height="70.4"/>
		</g>
	</g>
	<g>
		<path d="M314.9,558.7H305v-69.5h32.9c13.5,0,21.6,8.3,21.6,19.5c0,9.7-5.8,20.7-21.6,20.7h-23V558.7z M314.9,521.4h19.6
			c8.8,0,14.9-3.2,14.9-12.5c0-8.7-6.3-11.6-14.5-11.6h-20V521.4z"/>
		<path d="M422.9,489.2v8.3h-41.5v20.4h23.7c15.9,0,21.9,11.6,21.9,21.2c0,11.2-8.4,19.5-21.6,19.5h-33.9v-69.5H422.9z M381.4,550.3
			h21.1c8.1,0,14.4-2.6,14.4-11.3c0-9.4-6.2-12.8-15.1-12.8h-20.4V550.3z"/>
		<path d="M448.8,522.9l35.4-33.7h13.6l-30.4,28l31.2,41.4h-12.8l-25.5-34.8l-11.5,10.4v24.4H439v-69.5h9.9V522.9z"/>
		<path d="M541.5,534.6h-24.8v-7h24.8V534.6z"/>
		<path d="M623,489.2l-27.4,58.5c-4.9,10.6-9.9,12.9-15.8,12.9c-2.5,0-7.2,0.7-9.2,0.3v-7.7c1.7,0.3,5.4-0.7,7.8-0.7
			c3.7,0,4.7-1.1,8-6.7l-28.3-56.5h10.6l22.4,47.4l21.2-47.4H623z"/>
		<path d="M641.8,522.9l35.4-33.7h13.6l-30.4,28l31.2,41.4h-12.8l-25.5-34.8l-11.5,10.4v24.4h-9.9v-69.5h9.9V522.9z"/>
		<path d="M709.6,558.7h-9.9v-69.5h32.9c13.5,0,21.6,8.3,21.6,19.5c0,9.7-5.8,20.7-21.6,20.7h-23V558.7z M709.6,521.4h19.6
			c8.8,0,14.9-3.2,14.9-12.5c0-8.7-6.3-11.6-14.5-11.6h-20V521.4z"/>
		<path d="M768.4,538.4l-7.6,20.3h-10.2l27.5-69.5h11.2l26.3,69.5h-10.8l-7.2-20.3H768.4z M794,530.2l-10.8-30.6h-0.2l-11.7,30.6
			H794z"/>
		<path d="M818.6,483.6v-7.6h8.9v7.6H818.6z M835.9,558.7h-9.9v-69.5h9.9V558.7z M834.5,483.6v-7.6h8.9v7.6H834.5z"/>
		<path d="M862.4,517.9h38.1v-28.7h9.9v69.5h-9.9v-32.4h-38.1v32.4h-9.9v-69.5h9.9V517.9z"/>
		<path d="M937,538.4l-7.6,20.3h-10.2l27.5-69.5h11.2l26.3,69.5h-10.8l-7.2-20.3H937z M962.6,530.2l-10.8-30.6h-0.2L940,530.2H962.6
			z"/>
	</g>
</g>
</svg>
