<?xml version="1.0" encoding="utf-8"?>
<!-- Generator: Adobe Illustrator 21.1.0, SVG Export Plug-In . SVG Version: 6.00 Build 0)  -->
<svg version="1.1" id="Layer_1" xmlns="http://www.w3.org/2000/svg" xmlns:xlink="http://www.w3.org/1999/xlink" x="0px" y="0px"
	 viewBox="0 0 133.5 69.8" style="enable-background:new 0 0 133.5 69.8;" xml:space="preserve">
<g>
	<g>
		<path d="M25,28c1.4,0,3.5,0.8,4.7,2.4l5.7-5.8c-2.8-2.6-6.8-4.1-10.4-4.1c-5.4,0-11.5,2.6-11.5,9.4c0,4.8,3.4,6.8,7.1,8
			c3.9,1.3,4.8,1.7,4.8,2.7c0,1-1,1.3-2,1.3c-2.2,0-4.6-1.3-5.9-2.7l-5.6,6.1c2.8,2.5,7.1,4.1,11.5,4.1c5.5,0,11.3-3.2,11.3-9.8
			c0-5.6-5.3-7.4-9.2-8.7c-1.9-0.6-2.7-0.9-2.7-1.7C22.7,28.3,23.6,28,25,28z"/>
		<path d="M42.1,30.2c0-2-1.8-2.2-3-2.2h-2.3v4.7h1.9C40.1,32.7,42.1,32.3,42.1,30.2z"/>
		<path d="M42.1,40c0-2-1.8-2.2-3-2.2h-2.3v4.7h1.9C40.1,42.5,42.1,42.1,42.1,40z"/>
		<path d="M64,37.6c3.2-1.5,5.1-4.3,5.1-7.8c0-7.4-6-9.4-11.7-9.4H39.6c4.7,0,11.3,1,11.3,7.7c0,3.1-1.7,5.1-4.2,6.1v0.1
			c2.8,0.7,5.4,3,5.4,6.6c0,6.3-5.6,8.5-11.2,8.5h13.5V39h0.3l5.6,10.3h11.2L64,37.6z M56.2,32.6h-1.9V28h2.3c1.2,0,3,0.2,3,2.2
			C59.6,32.3,57.6,32.6,56.2,32.6z"/>
	</g>
	<g>
		<path d="M82.5,22.8c-0.2-0.3-0.6-0.5-1-0.5c-0.5,0-1,0.2-1,0.8c0,0.5,0.4,0.7,1.1,0.9c0.7,0.2,1.7,0.5,1.7,1.7
			c0,1.2-1,1.8-2.1,1.8c-0.7,0-1.5-0.3-1.9-0.8l0.7-0.7c0.3,0.4,0.8,0.6,1.2,0.6c0.5,0,1-0.2,1-0.8c0-0.6-0.6-0.8-1.3-1
			c-0.7-0.2-1.4-0.6-1.4-1.6c0-1.2,1-1.7,2.1-1.7c0.6,0,1.2,0.2,1.6,0.6L82.5,22.8z"/>
		<path d="M85.2,22.5h-1.7v-0.9H88v0.9h-1.7v4.8h-1V22.5z"/>
		<path d="M88.6,21.6h2c1.1,0,2.1,0.4,2.1,1.6c0,0.8-0.5,1.4-1.3,1.5l1.5,2.5h-1.2l-1.3-2.4h-0.7v2.4h-1V21.6z M90.5,24
			c0.6,0,1.2-0.1,1.2-0.8c0-0.6-0.6-0.8-1.1-0.8h-0.9V24H90.5z"/>
		<path d="M95.4,21.6h0.9l2.4,5.7h-1.2L97.1,26h-2.5l-0.5,1.3H93L95.4,21.6z M96.7,25.1l-0.9-2.3L95,25.1H96.7z"/>
		<path d="M100,22.5h-1.7v-0.9h4.5v0.9H101v4.8h-1V22.5z"/>
		<path d="M103.4,21.6h3.8v0.9h-2.7v1.4h2.6v0.8h-2.6v1.6h2.9v0.9h-3.9V21.6z"/>
		<path d="M113.2,27c-0.6,0.3-1.2,0.4-2.1,0.4c-1.8,0-3.1-1.2-3.1-3c0-1.8,1.3-3,3.1-3c0.9,0,1.7,0.3,2.2,0.7l-0.7,0.8
			c-0.3-0.3-0.8-0.6-1.4-0.6c-1.2,0-2,0.9-2,2.1c0,1.2,0.8,2.1,2,2.1c0.4,0,0.8-0.1,1.1-0.2v-1.4H111V24h2.2V27z"/>
		<path d="M114.4,21.6h1v5.7h-1V21.6z"/>
		<path d="M120.8,22.9c-0.3-0.4-0.8-0.6-1.3-0.6c-1.2,0-2,0.9-2,2.1c0,1.2,0.8,2.1,1.9,2.1c0.6,0,1.1-0.3,1.4-0.7l0.8,0.6
			c-0.5,0.6-1.2,1-2.2,1c-1.8,0-3-1.2-3-3c0-1.8,1.3-3,3.1-3c0.7,0,1.6,0.3,2.1,0.9L120.8,22.9z"/>
		<path d="M79.6,32.6h2.2c0.9,0,1.7,0.4,1.7,1.4c0,0.6-0.4,1.1-1,1.2v0c0.7,0.1,1.2,0.6,1.2,1.3c0,1.2-1.1,1.6-2.1,1.6h-2V32.6z
			 M80.6,34.9h0.9c0.7,0,1-0.3,1-0.8c0-0.5-0.4-0.7-1.1-0.7h-0.8V34.9z M80.6,37.4h0.9c0.5,0,1.3-0.1,1.3-0.8c0-0.6-0.4-0.8-1.2-0.8
			h-0.9V37.4z"/>
		<path d="M89.3,36.2c0,1.4-1,2.2-2.3,2.2c-1.3,0-2.3-0.9-2.3-2.2v-3.6h1v3.5c0,0.7,0.3,1.4,1.3,1.4c1,0,1.3-0.7,1.3-1.4v-3.5h1
			V36.2z"/>
		<path d="M93.4,33.8c-0.2-0.3-0.6-0.5-1-0.5c-0.5,0-1,0.2-1,0.8c0,0.5,0.4,0.7,1.1,0.9c0.7,0.2,1.7,0.5,1.7,1.7
			c0,1.2-1,1.8-2.1,1.8c-0.7,0-1.5-0.3-1.9-0.8l0.7-0.7c0.3,0.4,0.8,0.6,1.2,0.6c0.5,0,1-0.2,1-0.8c0-0.6-0.6-0.8-1.3-1
			c-0.7-0.2-1.4-0.6-1.4-1.6c0-1.2,1-1.7,2.1-1.7c0.6,0,1.2,0.2,1.6,0.6L93.4,33.8z"/>
		<path d="M95.1,32.6h1v5.7h-1V32.6z"/>
		<path d="M97.4,32.6h1.3l2.6,4.2h0v-4.2h1v5.7h-1.3l-2.7-4.4h0v4.4h-1V32.6z"/>
		<path d="M103.6,32.6h3.8v0.9h-2.7v1.4h2.6v0.8h-2.6v1.6h2.9v0.9h-3.9V32.6z"/>
		<path d="M111.4,33.8c-0.2-0.3-0.6-0.5-1-0.5c-0.5,0-1,0.2-1,0.8c0,0.5,0.4,0.7,1.1,0.9c0.7,0.2,1.7,0.5,1.7,1.7
			c0,1.2-1,1.8-2.1,1.8c-0.7,0-1.5-0.3-1.9-0.8l0.7-0.7c0.3,0.4,0.8,0.6,1.2,0.6c0.5,0,1-0.2,1-0.8c0-0.6-0.6-0.8-1.3-1
			c-0.7-0.2-1.4-0.6-1.4-1.6c0-1.2,1-1.7,2.1-1.7c0.6,0,1.2,0.2,1.6,0.6L111.4,33.8z"/>
		<path d="M116,33.8c-0.2-0.3-0.6-0.5-1-0.5c-0.5,0-1,0.2-1,0.8c0,0.5,0.4,0.7,1.1,0.9c0.7,0.2,1.7,0.5,1.7,1.7c0,1.2-1,1.8-2.1,1.8
			c-0.7,0-1.5-0.3-1.9-0.8l0.7-0.7c0.3,0.4,0.8,0.6,1.2,0.6c0.5,0,1-0.2,1-0.8c0-0.6-0.6-0.8-1.3-1c-0.7-0.2-1.4-0.6-1.4-1.6
			c0-1.2,1-1.7,2.1-1.7c0.6,0,1.2,0.2,1.6,0.6L116,33.8z"/>
		<path d="M79.6,43.6h2c1.1,0,2.1,0.4,2.1,1.6c0,0.8-0.5,1.4-1.3,1.5l1.5,2.5h-1.2l-1.3-2.4h-0.7v2.4h-1V43.6z M81.4,46
			c0.6,0,1.2-0.1,1.2-0.8c0-0.6-0.6-0.8-1.1-0.8h-0.9V46H81.4z"/>
		<path d="M84.7,43.6h3.8v0.9h-2.7v1.4h2.6v0.8h-2.6v1.6h2.9v0.9h-3.9V43.6z"/>
		<path d="M88.8,43.6H90l1.6,4.4h0l1.6-4.4h1.1l-2.3,5.7h-0.9L88.8,43.6z"/>
		<path d="M94.8,43.6h1v5.7h-1V43.6z"/>
		<path d="M97,43.6h3.8v0.9H98v1.4h2.6v0.8H98v1.6h2.9v0.9H97V43.6z"/>
		<path d="M101.3,43.6h1.1l1.1,4.2h0l1.2-4.2h1l1.2,4.2h0l1.1-4.2h1.1l-1.7,5.7h-1l-1.3-4.2h0l-1.3,4.2h-1L101.3,43.6z"/>
	</g>
</g>
</svg>
