<?xml version="1.0" encoding="utf-8"?>
<!-- Generator: Adobe Illustrator 21.1.0, SVG Export Plug-In . SVG Version: 6.00 Build 0)  -->
<svg version="1.1" id="Layer_1" xmlns="http://www.w3.org/2000/svg" xmlns:xlink="http://www.w3.org/1999/xlink" x="0px" y="0px"
	 viewBox="0 0 219.4 163.2" style="enable-background:new 0 0 219.4 163.2;" xml:space="preserve">
<style type="text/css">
	.st0{fill:#12100F;}
	.st1{fill:#FCDE54;}
	.st2{fill-rule:evenodd;clip-rule:evenodd;fill:#12100F;}
</style>
<g>
	<path class="st0" d="M101.3,22.7l7.8,7.9l7.8-7.9l-7.8-7.9L101.3,22.7z M109.2,25.3l-2.6-2.6l2.6-2.6l2.6,2.6L109.2,25.3z"/>
	<path class="st0" d="M101.3,101.3l7.8,7.9l7.8-7.9l-7.8-7.9L101.3,101.3z M109.2,103.9l-2.6-2.6l2.6-2.6l2.6,2.6L109.2,103.9z"/>
	<path class="st0" d="M148.4,54.1l-7.8,7.9l7.8,7.9l7.8-7.9L148.4,54.1z M145.8,62l2.6-2.6L151,62l-2.6,2.6L145.8,62z"/>
	<path class="st0" d="M62.1,62l7.8,7.9l7.8-7.9l-7.8-7.9L62.1,62z M69.9,64.6L67.3,62l2.6-2.6l2.6,2.6L69.9,64.6z"/>
	<polygon class="st1" points="111,66.6 111,87 125.4,101.5 125.4,81 	"/>
	<polygon class="st1" points="92.9,101.5 107.3,87 107.3,66.6 92.9,81 	"/>
	<polygon class="st1" points="92.9,22.7 92.9,43.2 107.3,57.7 107.3,37.2 	"/>
	<polygon class="st1" points="125.4,22.7 111,37.2 111,57.7 125.4,43.2 	"/>
	<polygon class="st1" points="104.7,60.3 90.3,45.8 69.9,45.8 84.3,60.3 	"/>
	<polygon class="st1" points="84.3,64 69.9,78.4 90.3,78.4 104.7,64 	"/>
	<polygon class="st1" points="134,60.3 148.4,45.8 128,45.8 113.6,60.3 	"/>
	<polygon class="st1" points="113.6,64 128,78.4 148.4,78.4 134,64 	"/>
	<path class="st1" d="M142.3,28.6h-11.1v11.1h11.1V28.6z M138.6,36h-3.7v-3.7h3.7V36z"/>
	<path class="st1" d="M87,28.6H76v11.1H87V28.6z M83.3,36h-3.7v-3.7h3.7V36z"/>
	<path class="st1" d="M76,95.5l11.1,0V84.3H76V95.5z M83.3,91.7h-3.7v-3.7h3.7V91.7z"/>
	<path class="st1" d="M131.2,95.5l11.1,0V84.3h-11.1V95.5z M138.5,88.1v3.7h-3.7l0-3.7H138.5z"/>
</g>
<g>
	<path class="st2" d="M78.5,154c-0.7,0-1.4-0.1-2-0.3c-0.7-0.2-1.2-0.4-1.5-0.7l-0.3,0.7h-0.8l-0.1-4.1h0.8c0.1,0.3,0.3,0.7,0.5,1.1
		c0.2,0.4,0.5,0.8,0.8,1.1c0.3,0.3,0.7,0.6,1.1,0.8c0.4,0.2,0.9,0.3,1.4,0.3c0.6,0,1.1-0.1,1.4-0.4c0.3-0.3,0.5-0.7,0.5-1.2
		c0-0.3-0.1-0.5-0.2-0.7c-0.1-0.2-0.3-0.4-0.6-0.5c-0.3-0.1-0.6-0.3-0.9-0.4c-0.3-0.1-0.7-0.2-1.2-0.4c-0.5-0.1-0.9-0.3-1.2-0.4
		c-0.3-0.1-0.7-0.4-1.1-0.7c-0.3-0.3-0.6-0.6-0.8-1c-0.2-0.4-0.3-0.9-0.3-1.4c0-1,0.4-1.9,1.3-2.5c0.8-0.6,1.9-0.9,3.3-0.9
		c0.6,0,1.2,0.1,1.8,0.2c0.5,0.1,1,0.3,1.4,0.4l0.2-0.6h0.8l0.2,3.7h-0.8c-0.2-0.8-0.7-1.4-1.3-1.9c-0.6-0.6-1.2-0.8-1.9-0.8
		c-0.5,0-1,0.1-1.3,0.4c-0.3,0.2-0.5,0.6-0.5,1c0,0.5,0.2,0.9,0.7,1.2c0.5,0.2,1.1,0.5,1.9,0.7c1.3,0.3,2.2,0.8,2.8,1.4
		c0.6,0.6,0.9,1.3,0.9,2.2c0,1.2-0.4,2.1-1.4,2.7C81.1,153.7,79.9,154,78.5,154L78.5,154z M95.5,144.1c0.5,0.5,0.9,1.1,1.2,1.8
		c0.3,0.7,0.4,1.4,0.4,2.3c0,0.8-0.1,1.6-0.4,2.3c-0.3,0.7-0.7,1.3-1.2,1.8c-0.6,0.5-1.2,1-2,1.2c-0.8,0.3-1.7,0.4-2.6,0.4
		c-0.9,0-1.6-0.1-2.4-0.4c-0.7-0.3-1.4-0.6-1.9-1.1c-0.5-0.5-1-1.1-1.3-1.8c-0.3-0.7-0.5-1.5-0.5-2.4c0-0.9,0.1-1.6,0.4-2.3
		c0.3-0.7,0.7-1.3,1.2-1.8c0.5-0.5,1.2-0.9,1.9-1.2c0.8-0.3,1.6-0.4,2.6-0.4c1,0,1.9,0.1,2.6,0.4C94.3,143.2,94.9,143.6,95.5,144.1
		L95.5,144.1z M92.8,151.7c0.1-0.4,0.3-0.9,0.3-1.5c0.1-0.6,0.1-1.3,0.1-2c0-0.5,0-1.1-0.1-1.7c-0.1-0.7-0.2-1.2-0.3-1.5
		c-0.2-0.5-0.4-0.8-0.7-1.1c-0.3-0.3-0.7-0.4-1.1-0.4c-0.5,0-0.9,0.1-1.2,0.4c-0.3,0.3-0.5,0.7-0.7,1.1c-0.1,0.4-0.3,0.9-0.3,1.5
		c-0.1,0.6-0.1,1.1-0.1,1.7c0,0.8,0,1.4,0.1,1.9c0,0.5,0.2,1,0.4,1.6c0.2,0.4,0.4,0.8,0.7,1.1c0.3,0.3,0.7,0.4,1.2,0.4
		c0.4,0,0.8-0.1,1.1-0.4C92.4,152.5,92.6,152.1,92.8,151.7L92.8,151.7z M104.5,154c-1,0-1.9-0.1-2.6-0.4c-0.8-0.3-1.4-0.7-1.9-1.2
		c-0.5-0.5-0.8-1.1-1.1-1.8c-0.2-0.7-0.4-1.5-0.4-2.3c0-0.8,0.2-1.5,0.4-2.1c0.3-0.7,0.7-1.3,1.2-1.8c0.5-0.5,1.2-0.9,1.9-1.3
		c0.8-0.3,1.6-0.5,2.5-0.5c1.3,0,2.3,0.2,3.1,0.8c0.8,0.5,1.1,1.2,1.1,2c0,0.5-0.1,0.9-0.4,1.3c-0.3,0.3-0.7,0.5-1.4,0.5
		c-0.5,0-1-0.1-1.3-0.4c-0.4-0.3-0.5-0.6-0.5-1c0-0.4,0.1-0.7,0.2-1.1c0.1-0.4,0.2-0.6,0.2-0.8c-0.1-0.1-0.2-0.2-0.3-0.3
		c-0.1-0.1-0.3-0.1-0.6-0.1c-0.3,0-0.6,0.1-0.9,0.2c-0.3,0.2-0.5,0.4-0.7,0.8c-0.2,0.4-0.4,0.9-0.5,1.5c-0.1,0.6-0.2,1.3-0.2,2.2
		c0,1.3,0.3,2.3,0.9,3.1c0.6,0.8,1.3,1.2,2.1,1.2c0.8,0,1.4-0.2,1.9-0.5c0.5-0.4,0.9-0.9,1.2-1.5l0.8,0.6c-0.2,0.4-0.5,0.8-0.8,1.2
		c-0.3,0.4-0.7,0.7-1.1,1c-0.4,0.3-0.9,0.5-1.4,0.7C105.6,153.9,105.1,154,104.5,154L104.5,154z M116.6,153.6H110v-0.8
		c0.2,0,0.4,0,0.5-0.1c0.2,0,0.3,0,0.4-0.1c0.2-0.1,0.4-0.2,0.5-0.4c0.1-0.2,0.1-0.4,0.1-0.6v-6.3c0-0.3,0-0.5-0.2-0.7
		c-0.1-0.2-0.3-0.4-0.4-0.5c-0.1-0.1-0.3-0.2-0.6-0.3c-0.3-0.1-0.5-0.1-0.7-0.1V143l5.2-0.3l0.2,0.2v8.6c0,0.3,0,0.5,0.2,0.6
		c0.1,0.2,0.3,0.3,0.4,0.4c0.1,0.1,0.3,0.1,0.5,0.2c0.2,0,0.4,0.1,0.5,0.1V153.6z M115.1,138.8c0,0.5-0.2,1-0.6,1.4
		c-0.4,0.4-0.9,0.6-1.5,0.6c-0.6,0-1.1-0.2-1.5-0.6c-0.4-0.4-0.6-0.9-0.6-1.4c0-0.6,0.2-1,0.6-1.4c0.4-0.4,0.9-0.6,1.5-0.6
		c0.6,0,1.1,0.2,1.5,0.6C114.9,137.8,115.1,138.3,115.1,138.8L115.1,138.8z M129.7,153.4c-0.3,0.1-0.7,0.3-1.1,0.4
		c-0.4,0.1-0.9,0.2-1.3,0.2c-0.9,0-1.5-0.1-1.9-0.4c-0.4-0.3-0.7-0.6-0.8-1.1h-0.1c-0.2,0.2-0.5,0.5-0.7,0.6
		c-0.2,0.2-0.5,0.3-0.7,0.4c-0.3,0.2-0.6,0.3-1,0.4c-0.3,0.1-0.7,0.1-1.3,0.1c-0.8,0-1.5-0.3-2.1-0.7c-0.6-0.5-0.9-1.1-0.9-2
		c0-0.5,0.1-0.9,0.2-1.2c0.1-0.3,0.3-0.6,0.5-0.9c0.2-0.2,0.5-0.4,0.7-0.6c0.3-0.2,0.6-0.3,0.9-0.4c0.6-0.2,1.4-0.5,2.3-0.8
		c0.9-0.3,1.5-0.5,1.9-0.7v-1.1c0-0.2,0-0.4,0-0.7c0-0.3-0.1-0.6-0.2-0.7c-0.1-0.2-0.3-0.4-0.5-0.6c-0.2-0.2-0.5-0.2-0.8-0.2
		c-0.3,0-0.6,0-0.8,0.1c-0.2,0.1-0.4,0.2-0.5,0.3c0,0.1,0.1,0.4,0.2,0.7c0.1,0.3,0.2,0.6,0.2,0.9c0,0.1,0,0.3-0.1,0.5
		c-0.1,0.2-0.2,0.3-0.3,0.4c-0.2,0.1-0.3,0.3-0.5,0.3c-0.2,0.1-0.5,0.1-0.9,0.1c-0.6,0-1-0.1-1.3-0.4c-0.3-0.3-0.4-0.7-0.4-1.1
		c0-0.4,0.1-0.8,0.5-1.1c0.3-0.3,0.7-0.6,1.2-0.8c0.4-0.2,1-0.4,1.5-0.5c0.6-0.1,1.1-0.2,1.6-0.2c0.7,0,1.3,0,1.9,0.1
		c0.6,0.1,1.1,0.3,1.5,0.5c0.4,0.2,0.8,0.6,1,1.1c0.3,0.5,0.4,1.1,0.4,1.9c0,0.8,0,1.8,0,2.9c0,1.1,0,1.9,0,2.2c0,0.3,0,0.6,0.1,0.8
		c0.1,0.2,0.2,0.3,0.4,0.4c0.1,0.1,0.3,0.1,0.6,0.1c0.3,0,0.5,0,0.7,0V153.4z M124.5,147.8c-0.4,0.1-0.8,0.3-1.2,0.5
		c-0.4,0.2-0.7,0.4-1,0.6c-0.3,0.2-0.5,0.5-0.6,0.8c-0.1,0.3-0.2,0.7-0.2,1.1c0,0.6,0.1,1,0.4,1.2c0.2,0.3,0.5,0.4,0.9,0.4
		c0.4,0,0.7-0.1,0.9-0.3c0.3-0.2,0.5-0.4,0.7-0.6L124.5,147.8z M138.4,153.1c-0.4,0.2-0.9,0.4-1.5,0.6c-0.5,0.2-1.1,0.2-1.9,0.2
		c-1.1,0-1.9-0.3-2.4-0.8c-0.5-0.5-0.8-1.3-0.8-2.3v-6.7h-1.9v-1.2h1.9v-3.3h3.4v3.3h3v1.2h-3v5.9c0,0.9,0.1,1.5,0.3,1.8
		c0.2,0.4,0.7,0.5,1.2,0.5c0.2,0,0.5,0,0.8,0c0.4,0,0.6-0.1,0.7-0.1V153.1z M145.8,153.6h-6.7v-0.8c0.2,0,0.4,0,0.5-0.1
		c0.2,0,0.3,0,0.5-0.1c0.2-0.1,0.4-0.2,0.5-0.4c0.1-0.2,0.1-0.4,0.1-0.6v-6.3c0-0.3,0-0.5-0.2-0.7c-0.1-0.2-0.3-0.4-0.4-0.5
		c-0.1-0.1-0.3-0.2-0.6-0.3c-0.3-0.1-0.5-0.1-0.7-0.1V143l5.2-0.3l0.1,0.2v8.6c0,0.3,0.1,0.5,0.2,0.6c0.1,0.2,0.3,0.3,0.5,0.4
		c0.1,0.1,0.3,0.1,0.5,0.2c0.2,0,0.4,0.1,0.5,0.1V153.6z M144.3,138.8c0,0.5-0.2,1-0.6,1.4c-0.4,0.4-0.9,0.6-1.5,0.6
		c-0.6,0-1.1-0.2-1.5-0.6c-0.4-0.4-0.6-0.9-0.6-1.4c0-0.6,0.2-1,0.6-1.4c0.4-0.4,0.9-0.6,1.5-0.6c0.6,0,1.1,0.2,1.5,0.6
		C144.1,137.8,144.3,138.3,144.3,138.8L144.3,138.8z M157.6,144.1c0.5,0.5,0.9,1.1,1.2,1.8c0.3,0.7,0.4,1.4,0.4,2.3
		c0,0.8-0.1,1.6-0.4,2.3c-0.3,0.7-0.7,1.3-1.2,1.8c-0.5,0.5-1.2,1-2,1.2c-0.8,0.3-1.7,0.4-2.7,0.4c-0.8,0-1.6-0.1-2.4-0.4
		c-0.7-0.3-1.4-0.6-1.9-1.1c-0.5-0.5-1-1.1-1.3-1.8c-0.3-0.7-0.5-1.5-0.5-2.4c0-0.9,0.1-1.6,0.4-2.3c0.3-0.7,0.7-1.3,1.2-1.8
		c0.5-0.5,1.2-0.9,1.9-1.2c0.8-0.3,1.6-0.4,2.6-0.4c1,0,1.9,0.1,2.6,0.4C156.4,143.2,157.1,143.6,157.6,144.1L157.6,144.1z
		 M154.9,151.7c0.2-0.4,0.3-0.9,0.4-1.5c0.1-0.6,0.1-1.3,0.1-2c0-0.5,0-1.1-0.1-1.7c-0.1-0.7-0.2-1.2-0.3-1.5
		c-0.2-0.5-0.4-0.8-0.7-1.1c-0.3-0.3-0.7-0.4-1.1-0.4c-0.5,0-0.9,0.1-1.2,0.4c-0.3,0.3-0.5,0.7-0.7,1.1c-0.1,0.4-0.3,0.9-0.3,1.5
		c-0.1,0.6-0.1,1.1-0.1,1.7c0,0.8,0,1.4,0.1,1.9c0,0.5,0.2,1,0.4,1.6c0.2,0.4,0.4,0.8,0.7,1.1c0.3,0.3,0.7,0.4,1.1,0.4
		c0.4,0,0.8-0.1,1.1-0.4C154.5,152.5,154.7,152.1,154.9,151.7L154.9,151.7z M174.6,153.6h-6.4v-0.8c0.1,0,0.3,0,0.5-0.1
		c0.2,0,0.3,0,0.4-0.1c0.2-0.1,0.3-0.2,0.3-0.4c0.1-0.2,0.1-0.4,0.1-0.7v-5.1c0-0.7-0.1-1.3-0.4-1.7c-0.3-0.4-0.6-0.6-1.2-0.6
		c-0.3,0-0.5,0-0.8,0.1c-0.2,0.1-0.5,0.2-0.7,0.4c-0.2,0.1-0.4,0.3-0.5,0.4c-0.1,0.2-0.2,0.3-0.3,0.4v5.8c0,0.3,0,0.5,0.1,0.6
		c0.1,0.2,0.2,0.3,0.3,0.4c0.1,0.1,0.3,0.1,0.4,0.2c0.2,0,0.3,0.1,0.5,0.1v0.8h-6.4v-0.8c0.2,0,0.4,0,0.5-0.1c0.2,0,0.3-0.1,0.5-0.1
		c0.2-0.1,0.4-0.2,0.5-0.4c0.1-0.2,0.1-0.4,0.1-0.7v-6.3c0-0.2,0-0.4-0.2-0.7c-0.1-0.2-0.3-0.4-0.4-0.5c-0.1-0.1-0.3-0.2-0.5-0.2
		c-0.2-0.1-0.4-0.1-0.6-0.1V143l5-0.3l0.2,0.2v1.6h0c0.2-0.2,0.4-0.4,0.7-0.7c0.3-0.3,0.6-0.5,0.8-0.6c0.3-0.2,0.6-0.3,1-0.4
		c0.4-0.1,0.9-0.2,1.4-0.2c1.2,0,2,0.3,2.6,1c0.6,0.7,0.9,1.5,0.9,2.7v5.3c0,0.3,0,0.5,0.1,0.6c0.1,0.2,0.2,0.3,0.4,0.4
		c0.1,0,0.3,0.1,0.4,0.1c0.2,0,0.4,0.1,0.6,0.1V153.6z M62.4,153.6h-8.2v-0.9c0.4,0,0.8-0.1,1.4-0.2c0.5-0.1,0.8-0.3,0.8-0.4
		c0-0.1,0-0.1,0-0.2c0-0.1,0-0.2-0.1-0.3l-1.3-3.2h-5.2c-0.1,0.3-0.3,0.6-0.4,1.1c-0.1,0.4-0.3,0.7-0.4,1.1
		c-0.1,0.4-0.2,0.7-0.2,0.9c0,0.2,0,0.3,0,0.4c0,0.2,0.2,0.4,0.5,0.6c0.4,0.2,0.9,0.3,1.7,0.4v0.9h-6.1v-0.9c0.2,0,0.5,0,0.8-0.1
		c0.3,0,0.5-0.1,0.7-0.3c0.3-0.2,0.5-0.4,0.7-0.6c0.2-0.2,0.4-0.5,0.5-0.9c0.8-2,1.6-4.1,2.5-6.1c0.8-2,1.7-4.3,2.7-6.8h2.1
		c1.4,3.5,2.5,6.3,3.3,8.3c0.8,2,1.4,3.7,2,5c0.1,0.2,0.2,0.4,0.4,0.6c0.1,0.2,0.3,0.3,0.6,0.5c0.2,0.1,0.4,0.2,0.7,0.3
		c0.3,0,0.5,0.1,0.7,0.1V153.6z M54.6,147.4l-2.2-5.6l-2.2,5.6H54.6z M67.4,154c-0.7,0-1.4-0.1-2-0.3c-0.7-0.2-1.2-0.4-1.5-0.7
		l-0.3,0.7h-0.8l-0.1-4.1h0.8c0.1,0.3,0.3,0.7,0.5,1.1c0.2,0.4,0.5,0.8,0.8,1.1c0.3,0.3,0.7,0.6,1.1,0.8c0.4,0.2,0.9,0.3,1.4,0.3
		c0.6,0,1.1-0.1,1.4-0.4c0.3-0.3,0.5-0.7,0.5-1.2c0-0.3-0.1-0.5-0.2-0.7c-0.1-0.2-0.3-0.4-0.6-0.5c-0.3-0.1-0.6-0.3-0.9-0.4
		c-0.3-0.1-0.7-0.2-1.2-0.4c-0.5-0.1-0.9-0.3-1.2-0.4c-0.4-0.1-0.7-0.4-1.1-0.7c-0.3-0.3-0.6-0.6-0.8-1c-0.2-0.4-0.3-0.9-0.3-1.4
		c0-1,0.4-1.9,1.3-2.5c0.8-0.6,1.9-0.9,3.3-0.9c0.6,0,1.2,0.1,1.8,0.2c0.5,0.1,1,0.3,1.4,0.4l0.2-0.6h0.8l0.2,3.7H71
		c-0.3-0.8-0.7-1.4-1.3-1.9c-0.6-0.6-1.2-0.8-1.9-0.8c-0.5,0-1,0.1-1.3,0.4c-0.3,0.2-0.5,0.6-0.5,1c0,0.5,0.2,0.9,0.7,1.2
		c0.5,0.2,1.1,0.5,1.9,0.7c1.3,0.3,2.2,0.8,2.8,1.4c0.6,0.6,0.9,1.3,0.9,2.2c0,1.2-0.4,2.1-1.4,2.7C70,153.7,68.8,154,67.4,154
		L67.4,154z"/>
	<g>
		<path class="st2" d="M153.3,132.3h-5.8c-1-1.6-1.8-2.8-2.5-3.7c-0.7-0.9-1.5-2-2.5-3.2h-0.6v4.7c0,0.3,0,0.5,0.1,0.7
			c0.1,0.2,0.3,0.3,0.5,0.4c0.1,0.1,0.3,0.1,0.6,0.2c0.3,0,0.5,0.1,0.7,0.1v0.8h-8v-0.8c0.2,0,0.5,0,0.8-0.1c0.3,0,0.6-0.1,0.7-0.2
			c0.3-0.1,0.4-0.3,0.5-0.4c0.1-0.2,0.1-0.4,0.1-0.7v-10.9c0-0.3,0-0.5-0.1-0.7c-0.1-0.2-0.3-0.3-0.6-0.5c-0.2-0.1-0.5-0.2-0.8-0.2
			c-0.3-0.1-0.5-0.1-0.7-0.1v-0.8h8.4c1.9,0,3.3,0.3,4.3,0.9c1,0.6,1.5,1.5,1.5,2.7c0,1.1-0.3,1.9-0.9,2.6c-0.6,0.7-1.5,1.2-2.7,1.5
			c0.5,0.6,1,1.4,1.7,2.2c0.6,0.8,1.3,1.7,2,2.6c0.2,0.3,0.5,0.6,0.9,1c0.4,0.4,0.7,0.7,1,0.7c0.2,0,0.4,0.1,0.6,0.1
			c0.3,0,0.4,0.1,0.5,0.1L153.3,132.3z M146.1,120.8c0-1-0.3-1.8-0.8-2.3c-0.6-0.5-1.4-0.7-2.4-0.7h-0.8v6.5h0.8
			c1,0,1.9-0.3,2.4-0.8C145.8,122.9,146.1,122,146.1,120.8L146.1,120.8z M164.6,129.7c-0.2,0.4-0.5,0.8-0.9,1.2
			c-0.3,0.4-0.8,0.7-1.2,0.9c-0.5,0.3-1,0.5-1.4,0.6c-0.5,0.1-1,0.2-1.7,0.2c-1.1,0-2-0.1-2.7-0.4c-0.8-0.3-1.4-0.7-1.9-1.2
			c-0.5-0.5-0.9-1.1-1.1-1.8c-0.2-0.7-0.4-1.5-0.4-2.3c0-0.7,0.1-1.5,0.4-2.1c0.3-0.7,0.6-1.3,1.1-1.8c0.5-0.5,1.1-0.9,1.8-1.3
			c0.7-0.3,1.5-0.5,2.5-0.5c1,0,1.8,0.1,2.4,0.4c0.6,0.3,1.2,0.6,1.6,1c0.4,0.4,0.7,0.9,0.9,1.5c0.2,0.6,0.3,1.1,0.3,1.8v0.7h-7.2
			c0,1.5,0.3,2.6,0.8,3.4c0.6,0.8,1.4,1.2,2.6,1.2c0.7,0,1.3-0.2,1.8-0.6c0.5-0.4,1-0.8,1.4-1.4L164.6,129.7z M160.6,125.6
			c0-0.4,0-0.9-0.1-1.3c0-0.5-0.1-0.8-0.2-1.1c-0.1-0.3-0.3-0.6-0.5-0.8c-0.2-0.2-0.5-0.3-0.8-0.3c-0.5,0-1,0.3-1.3,0.9
			c-0.3,0.6-0.5,1.5-0.5,2.7L160.6,125.6z M173.5,131.8c-0.4,0.2-0.9,0.4-1.5,0.5c-0.5,0.2-1.1,0.3-1.9,0.3c-1.1,0-1.9-0.3-2.4-0.8
			c-0.5-0.5-0.8-1.3-0.8-2.4v-6.7H165v-1.2h1.9v-3.3h3.4v3.3h3v1.2h-2.9v6c0,0.9,0.1,1.5,0.3,1.8c0.2,0.4,0.7,0.5,1.2,0.5
			c0.2,0,0.4,0,0.8,0c0.4,0,0.6-0.1,0.7-0.1V131.8z M186.4,132.1c-0.3,0.1-0.7,0.3-1.1,0.4c-0.4,0.1-0.9,0.2-1.3,0.2
			c-0.9,0-1.5-0.1-1.9-0.4c-0.4-0.3-0.7-0.6-0.8-1.1h0c-0.3,0.2-0.5,0.4-0.7,0.6c-0.2,0.2-0.5,0.3-0.7,0.4c-0.3,0.2-0.6,0.3-1,0.4
			c-0.3,0.1-0.7,0.1-1.3,0.1c-0.8,0-1.5-0.2-2.1-0.7c-0.6-0.5-0.9-1.1-0.9-2c0-0.5,0.1-0.9,0.2-1.2c0.1-0.3,0.3-0.6,0.5-0.9
			c0.2-0.2,0.5-0.4,0.7-0.6c0.3-0.1,0.6-0.3,0.9-0.4c0.6-0.2,1.4-0.5,2.3-0.7c0.9-0.3,1.5-0.5,1.9-0.7v-1.1c0-0.2,0-0.4,0-0.7
			c0-0.3-0.1-0.5-0.2-0.8c-0.1-0.2-0.3-0.4-0.5-0.6c-0.2-0.2-0.5-0.2-0.8-0.2c-0.3,0-0.6,0-0.8,0.1c-0.2,0.1-0.4,0.2-0.5,0.3
			c0,0.2,0.1,0.4,0.2,0.7c0.1,0.3,0.1,0.6,0.1,0.9c0,0.1,0,0.3-0.1,0.5c-0.1,0.2-0.2,0.3-0.3,0.4c-0.2,0.1-0.3,0.3-0.5,0.4
			c-0.2,0.1-0.5,0.1-0.9,0.1c-0.6,0-1-0.1-1.3-0.4c-0.3-0.3-0.5-0.7-0.5-1.1c0-0.4,0.2-0.8,0.5-1.1c0.3-0.3,0.7-0.6,1.2-0.8
			c0.4-0.2,1-0.4,1.5-0.5c0.6-0.1,1.1-0.2,1.6-0.2c0.7,0,1.3,0,1.9,0.1c0.6,0.1,1.1,0.3,1.5,0.5c0.4,0.3,0.8,0.6,1,1.1
			c0.3,0.5,0.4,1.1,0.4,1.9c0,0.8,0,1.8,0,2.9c0,1.1,0,1.9,0,2.2c0,0.3,0,0.6,0.1,0.8c0.1,0.2,0.2,0.3,0.4,0.4
			c0.1,0.1,0.3,0.1,0.6,0.1c0.3,0,0.5,0,0.7,0V132.1z M181.1,126.4c-0.4,0.1-0.8,0.3-1.2,0.5c-0.4,0.2-0.7,0.4-1,0.6
			c-0.3,0.2-0.5,0.5-0.6,0.8c-0.1,0.3-0.2,0.7-0.2,1.1c0,0.6,0.1,1,0.4,1.2c0.2,0.3,0.5,0.4,0.9,0.4c0.4,0,0.7-0.1,1-0.2
			c0.2-0.2,0.5-0.4,0.7-0.6L181.1,126.4z M193.9,132.3h-6.7v-0.8c0.2,0,0.4,0,0.5-0.1c0.2,0,0.3,0,0.4-0.1c0.2-0.1,0.4-0.2,0.5-0.4
			c0.1-0.2,0.1-0.4,0.1-0.7V124c0-0.3,0-0.5-0.2-0.7c-0.1-0.2-0.3-0.3-0.4-0.5c-0.1-0.1-0.3-0.2-0.6-0.2c-0.3-0.1-0.5-0.1-0.7-0.2
			v-0.8l5.2-0.3l0.2,0.2v8.6c0,0.2,0,0.5,0.2,0.6c0.1,0.2,0.3,0.3,0.4,0.4c0.1,0.1,0.3,0.1,0.5,0.2c0.2,0,0.4,0.1,0.5,0.1V132.3z
			 M192.3,117.5c0,0.5-0.2,1-0.6,1.4c-0.4,0.4-0.9,0.6-1.5,0.6c-0.6,0-1.1-0.2-1.5-0.6c-0.4-0.4-0.6-0.9-0.6-1.4
			c0-0.6,0.2-1,0.6-1.4c0.4-0.4,0.9-0.6,1.5-0.6c0.6,0,1.1,0.2,1.5,0.6C192.1,116.5,192.3,116.9,192.3,117.5L192.3,117.5z
			 M201.3,132.3h-6.6v-0.8c0.2,0,0.4,0,0.5-0.1c0.2,0,0.3,0,0.5-0.1c0.2-0.1,0.4-0.2,0.5-0.4s0.1-0.4,0.1-0.7v-12
			c0-0.3-0.1-0.5-0.2-0.8c-0.1-0.2-0.3-0.4-0.4-0.5c-0.1-0.1-0.4-0.2-0.6-0.3c-0.3-0.1-0.5-0.1-0.8-0.1v-0.8l5.3-0.3l0.2,0.2v14.5
			c0,0.3,0,0.5,0.1,0.6c0.1,0.2,0.2,0.3,0.4,0.4c0.1,0.1,0.3,0.1,0.4,0.2c0.2,0,0.3,0.1,0.5,0.1V132.3z"/>
		<path class="st2" d="M35.1,117.7c-1.1,0.1-1.8,0.3-2,1.5c-0.1,0.5-0.2,1.2-0.2,2.1v5.7c0,1.7-0.6,3-1.7,4.1
			c-1.1,1-2.6,1.5-4.4,1.5c-2.1,0-3.8-0.5-5-1.5c-1.2-1-1.8-2.4-1.8-4.1v-7.9c0-0.3-0.1-0.5-0.1-0.7c-0.1-0.2-0.3-0.4-0.5-0.5
			c-0.2-0.1-0.4-0.2-0.7-0.2c-0.3-0.1-0.5-0.1-0.7-0.1v-0.8H26v0.8c-0.2,0-0.4,0-0.7,0.1c-0.2,0-0.5,0.1-0.7,0.2
			c-0.3,0.1-0.4,0.2-0.5,0.4c-0.1,0.2-0.1,0.4-0.1,0.7v7.8c0,1.5,0.3,2.6,1,3.3c0.7,0.7,1.6,1.1,2.9,1.1c1.2,0,2.2-0.4,2.9-1.2
			c0.7-0.8,1-1.9,1-3.4v-5.2c0-0.9-0.1-1.6-0.2-2.1c-0.1-0.5-0.3-0.8-0.6-1c-0.2-0.2-0.5-0.3-1-0.4c-0.4-0.1-0.8-0.2-1-0.2v-0.8h6.1
			V117.7z M49.4,132.2h-4.6c-0.6-1.1-1.2-2.1-1.7-2.8c-0.5-0.8-1-1.5-1.4-2.2l-0.6,0.6v2.4c0,0.3,0,0.5,0.1,0.6
			c0.1,0.2,0.2,0.3,0.4,0.4c0.1,0.1,0.3,0.1,0.4,0.2c0.2,0,0.4,0.1,0.5,0.1v0.8H36v-0.8c0.2,0,0.4,0,0.5-0.1c0.2,0,0.3-0.1,0.5-0.1
			c0.2-0.1,0.4-0.2,0.5-0.4c0.1-0.2,0.1-0.4,0.1-0.7v-10.9c0-0.2-0.1-0.5-0.2-0.8c-0.1-0.3-0.3-0.4-0.4-0.6
			c-0.1-0.1-0.8-0.3-0.9-0.3v-0.8l4.9-0.2l0.2,0.2v10c0.5-0.5,1.1-1,1.8-1.7c0.7-0.6,1.2-1.1,1.6-1.6c0.2-0.2,0.4-0.4,0.4-0.6
			c0-0.1,0-0.2,0-0.2c0-0.1-0.1-0.2-0.3-0.3c-0.2-0.1-0.6-0.2-1-0.2v-0.8h5.4v0.8c-0.7,0.2-1.2,0.4-1.6,0.6
			c-0.4,0.2-0.8,0.4-1.2,0.7c-0.3,0.2-0.6,0.4-0.8,0.6c-0.3,0.2-0.6,0.5-0.9,0.8c0.7,1,1.3,2,1.9,2.9c0.6,0.9,1.2,1.8,1.8,2.8
			c0.3,0.4,0.9,0.9,1.4,0.9V132.2z M60.4,123.4c0,0.5-0.2,1-0.5,1.5c-0.3,0.4-0.8,0.6-1.3,0.6c-0.5,0-0.9-0.1-1.3-0.4
			c-0.4-0.3-0.5-0.7-0.5-1.2c0-0.2,0-0.4,0-0.6c0-0.1,0.1-0.3,0.1-0.4c-0.3,0-0.7,0.1-1,0.3c-0.4,0.2-0.7,0.5-1,0.9v6
			c0,0.2,0,0.5,0.1,0.6c0.1,0.2,0.2,0.3,0.4,0.4c0.2,0.1,0.4,0.1,0.8,0.2c0.4,0.1,0.6,0.1,0.8,0.1v0.8h-7.1v-0.8
			c0.5,0,1.2-0.1,1.5-0.5c0.1-0.2,0.1-0.4,0.1-0.7v-6.3c0-0.3-0.1-0.5-0.2-0.7c-0.1-0.2-0.3-0.4-0.4-0.5c-0.1-0.1-0.3-0.2-0.5-0.2
			c-0.2-0.1-0.4-0.1-0.6-0.1v-0.8l5-0.3l0.2,0.2v1.6h0c0.5-0.6,1-1,1.5-1.4c0.5-0.3,1.1-0.5,1.7-0.5c0.7,0,1.2,0.2,1.6,0.6
			C60.2,122.2,60.4,122.8,60.4,123.4L60.4,123.4z M73.2,132c-0.3,0.1-0.7,0.3-1.1,0.4c-0.4,0.1-0.9,0.2-1.3,0.2
			c-0.9,0-1.5-0.1-1.9-0.4c-0.4-0.3-0.7-0.6-0.8-1.1H68c-0.2,0.2-0.5,0.5-0.7,0.6c-0.2,0.2-0.5,0.3-0.7,0.4c-0.3,0.2-0.6,0.3-1,0.4
			c-0.3,0.1-0.7,0.1-1.3,0.1c-0.8,0-1.5-0.3-2.1-0.7c-0.6-0.5-0.9-1.1-0.9-2c0-0.5,0.1-0.9,0.2-1.2c0.1-0.3,0.3-0.6,0.5-0.9
			c0.2-0.2,0.4-0.4,0.7-0.6c0.3-0.2,0.6-0.3,0.9-0.4c0.6-0.2,1.4-0.5,2.3-0.8c0.9-0.3,1.5-0.5,1.9-0.7v-1c0-0.2,0-0.4,0-0.7
			c0-0.3-0.1-0.6-0.2-0.8c-0.1-0.2-0.2-0.4-0.5-0.6c-0.2-0.2-0.5-0.2-0.8-0.2c-0.3,0-0.6,0-0.8,0.1c-0.2,0.1-0.4,0.2-0.5,0.3
			c0,0.1,0.1,0.4,0.2,0.7c0.1,0.3,0.1,0.6,0.1,0.9c0,0.1,0,0.3-0.1,0.5c-0.1,0.2-0.1,0.3-0.3,0.4c-0.2,0.1-0.4,0.3-0.5,0.3
			c-0.2,0.1-0.5,0.1-0.9,0.1c-0.6,0-1-0.1-1.4-0.4c-0.3-0.3-0.4-0.7-0.4-1.1c0-0.4,0.2-0.8,0.5-1.1c0.3-0.3,0.7-0.6,1.1-0.8
			c0.4-0.2,1-0.4,1.5-0.5c0.6-0.1,1.1-0.2,1.6-0.2c0.7,0,1.3,0,1.9,0.1c0.6,0.1,1.1,0.3,1.5,0.5c0.4,0.3,0.8,0.6,1,1.1
			c0.3,0.5,0.4,1.1,0.4,1.9c0,0.8,0,1.8,0,2.9c0,1.1,0,1.9,0,2.2c0,0.3,0,0.6,0.1,0.8c0.1,0.2,0.3,0.3,0.4,0.4
			c0.1,0.1,0.3,0.1,0.6,0.1c0.3,0,0.5,0,0.7,0V132z M68,126.3c-0.4,0.1-0.8,0.3-1.2,0.5c-0.4,0.2-0.7,0.4-1,0.6
			c-0.3,0.2-0.5,0.5-0.6,0.8c-0.2,0.3-0.2,0.7-0.2,1.1c0,0.6,0.1,1,0.4,1.2c0.3,0.3,0.6,0.4,0.9,0.4c0.4,0,0.7-0.1,1-0.3
			c0.3-0.2,0.5-0.4,0.7-0.6L68,126.3z M80.7,132.2h-6.7v-0.8c0.2,0,0.4,0,0.5,0c0.2,0,0.3-0.1,0.5-0.1c0.2-0.1,0.4-0.2,0.5-0.4
			c0.1-0.2,0.1-0.4,0.1-0.6v-6.3c0-0.3,0-0.5-0.2-0.7c-0.1-0.2-0.3-0.4-0.4-0.5c-0.1-0.1-0.3-0.2-0.6-0.3c-0.3-0.1-0.5-0.1-0.7-0.1
			v-0.8l5.2-0.3l0.2,0.2v8.6c0,0.3,0,0.5,0.2,0.7c0.1,0.2,0.3,0.3,0.4,0.4c0.1,0.1,0.3,0.1,0.5,0.2c0.2,0.1,0.4,0.1,0.5,0.1V132.2z
			 M79.2,117.4c0,0.5-0.2,1-0.6,1.4c-0.4,0.4-0.9,0.6-1.5,0.6c-0.6,0-1.1-0.2-1.5-0.6c-0.4-0.4-0.6-0.9-0.6-1.4c0-0.6,0.2-1,0.6-1.4
			c0.4-0.4,0.9-0.6,1.5-0.6c0.6,0,1.1,0.2,1.5,0.6C79,116.4,79.2,116.8,79.2,117.4L79.2,117.4z M95.7,132.2h-6.4v-0.8
			c0.1,0,0.3,0,0.5,0c0.2,0,0.3-0.1,0.4-0.1c0.1-0.1,0.3-0.2,0.3-0.4c0.1-0.2,0.1-0.4,0.1-0.7v-5.1c0-0.7-0.1-1.3-0.4-1.7
			c-0.3-0.4-0.7-0.6-1.2-0.6c-0.3,0-0.6,0-0.8,0.1c-0.2,0.1-0.5,0.2-0.7,0.4c-0.2,0.1-0.4,0.3-0.5,0.4c-0.1,0.2-0.2,0.3-0.3,0.4v5.8
			c0,0.3,0,0.5,0.1,0.6c0.1,0.2,0.2,0.3,0.4,0.4c0.1,0.1,0.3,0.1,0.4,0.2c0.2,0.1,0.3,0.1,0.5,0.1v0.8h-6.4v-0.8
			c0.2,0,0.4,0,0.5-0.1c0.2,0,0.3-0.1,0.4-0.1c0.2-0.1,0.4-0.2,0.5-0.4c0.1-0.2,0.1-0.4,0.1-0.7v-6.3c0-0.2-0.1-0.4-0.2-0.7
			c-0.1-0.2-0.3-0.4-0.4-0.5c-0.1-0.1-0.3-0.2-0.5-0.2c-0.2-0.1-0.4-0.1-0.6-0.1v-0.8l5-0.3l0.2,0.2v1.6h0c0.2-0.2,0.4-0.4,0.7-0.7
			c0.3-0.3,0.5-0.5,0.8-0.6c0.3-0.2,0.6-0.3,1-0.4c0.4-0.1,0.9-0.2,1.4-0.2c1.1,0,2,0.3,2.6,1c0.6,0.7,0.9,1.6,0.9,2.7v5.3
			c0,0.3,0,0.5,0.1,0.6c0.1,0.2,0.2,0.3,0.4,0.4c0.1,0,0.2,0.1,0.4,0.1c0.2,0.1,0.4,0.1,0.6,0.1V132.2z M103.4,132.2h-6.7v-0.8
			c0.2,0,0.4,0,0.5,0c0.2,0,0.3-0.1,0.4-0.1c0.2-0.1,0.4-0.2,0.5-0.4c0.1-0.2,0.1-0.4,0.1-0.6v-6.3c0-0.3,0-0.5-0.2-0.7
			c-0.1-0.2-0.3-0.4-0.4-0.5c-0.1-0.1-0.3-0.2-0.6-0.3c-0.3-0.1-0.5-0.1-0.7-0.1v-0.8l5.2-0.3l0.2,0.2v8.6c0,0.3,0,0.5,0.2,0.7
			c0.1,0.2,0.3,0.3,0.4,0.4c0.1,0.1,0.3,0.1,0.5,0.2c0.2,0.1,0.4,0.1,0.5,0.1V132.2z M101.8,117.4c0,0.5-0.2,1-0.6,1.4
			c-0.4,0.4-0.9,0.6-1.5,0.6c-0.6,0-1.1-0.2-1.5-0.6c-0.4-0.4-0.6-0.9-0.6-1.4c0-0.6,0.2-1,0.6-1.4c0.4-0.4,0.9-0.6,1.5-0.6
			c0.6,0,1.1,0.2,1.5,0.6C101.6,116.4,101.8,116.8,101.8,117.4L101.8,117.4z M116.4,132c-0.3,0.1-0.7,0.3-1.1,0.4
			c-0.4,0.1-0.9,0.2-1.3,0.2c-0.9,0-1.5-0.1-1.9-0.4c-0.4-0.3-0.7-0.6-0.8-1.1h-0.1c-0.2,0.2-0.5,0.5-0.7,0.6
			c-0.2,0.2-0.5,0.3-0.7,0.4c-0.3,0.2-0.7,0.3-1,0.4c-0.3,0.1-0.7,0.1-1.3,0.1c-0.8,0-1.5-0.3-2.1-0.7c-0.6-0.5-0.9-1.1-0.9-2
			c0-0.5,0-0.9,0.2-1.2c0.1-0.3,0.3-0.6,0.5-0.9c0.2-0.2,0.5-0.4,0.7-0.6c0.3-0.2,0.6-0.3,0.9-0.4c0.6-0.2,1.4-0.5,2.3-0.8
			c0.9-0.3,1.5-0.5,1.9-0.7v-1c0-0.2,0-0.4,0-0.7c0-0.3-0.1-0.6-0.2-0.8c-0.1-0.2-0.3-0.4-0.5-0.6c-0.2-0.2-0.5-0.2-0.8-0.2
			c-0.3,0-0.6,0-0.8,0.1c-0.2,0.1-0.4,0.2-0.5,0.3c0,0.1,0.1,0.4,0.2,0.7c0.1,0.3,0.2,0.6,0.2,0.9c0,0.1,0,0.3-0.1,0.5
			c-0.1,0.2-0.2,0.3-0.3,0.4c-0.2,0.1-0.3,0.3-0.5,0.3c-0.2,0.1-0.5,0.1-0.9,0.1c-0.6,0-1-0.1-1.3-0.4c-0.3-0.3-0.4-0.7-0.4-1.1
			c0-0.4,0.2-0.8,0.5-1.1c0.3-0.3,0.7-0.6,1.2-0.8c0.4-0.2,1-0.4,1.5-0.5c0.6-0.1,1.1-0.2,1.6-0.2c0.7,0,1.3,0,1.9,0.1
			c0.6,0.1,1.1,0.3,1.5,0.5c0.4,0.3,0.8,0.6,1,1.1c0.3,0.5,0.4,1.1,0.4,1.9c0,0.8,0,1.8,0,2.9c0,1.1,0,1.9,0,2.2
			c0,0.3,0,0.6,0.1,0.8c0.1,0.2,0.2,0.3,0.4,0.4c0.1,0.1,0.3,0.1,0.6,0.1c0.3,0,0.5,0,0.7,0V132z M111.2,126.3
			c-0.4,0.1-0.8,0.3-1.2,0.5c-0.4,0.2-0.7,0.4-0.9,0.6c-0.3,0.2-0.5,0.5-0.6,0.8c-0.1,0.3-0.2,0.7-0.2,1.1c0,0.6,0.1,1,0.4,1.2
			c0.2,0.3,0.6,0.4,0.9,0.4c0.4,0,0.7-0.1,1-0.3c0.2-0.2,0.5-0.4,0.7-0.6L111.2,126.3z M131.2,132.2h-6.4v-0.8c0.1,0,0.3,0,0.5,0
			c0.2,0,0.3-0.1,0.4-0.1c0.2-0.1,0.3-0.2,0.3-0.4c0.1-0.2,0.1-0.4,0.1-0.7v-5.1c0-0.7-0.1-1.3-0.4-1.7c-0.3-0.4-0.6-0.6-1.2-0.6
			c-0.3,0-0.5,0-0.8,0.1c-0.2,0.1-0.5,0.2-0.7,0.4c-0.2,0.1-0.4,0.3-0.5,0.4c-0.1,0.2-0.2,0.3-0.3,0.4v5.8c0,0.3,0,0.5,0.1,0.6
			c0.1,0.2,0.2,0.3,0.3,0.4c0.1,0.1,0.3,0.1,0.4,0.2c0.2,0.1,0.3,0.1,0.5,0.1v0.8h-6.4v-0.8c0.2,0,0.4,0,0.5-0.1
			c0.2,0,0.3-0.1,0.4-0.1c0.2-0.1,0.4-0.2,0.5-0.4c0.1-0.2,0.1-0.4,0.1-0.7v-6.3c0-0.2-0.1-0.4-0.2-0.7c-0.1-0.2-0.3-0.4-0.4-0.5
			c-0.1-0.1-0.3-0.2-0.5-0.2c-0.2-0.1-0.4-0.1-0.6-0.1v-0.8l5-0.3l0.2,0.2v1.6h0c0.2-0.2,0.4-0.4,0.7-0.7c0.3-0.3,0.6-0.5,0.8-0.6
			c0.3-0.2,0.6-0.3,1-0.4c0.4-0.1,0.9-0.2,1.4-0.2c1.1,0,2,0.3,2.6,1c0.6,0.7,0.9,1.6,0.9,2.7v5.3c0,0.3,0,0.5,0.1,0.6
			c0.1,0.2,0.2,0.3,0.4,0.4c0.1,0,0.3,0.1,0.4,0.1c0.2,0.1,0.4,0.1,0.6,0.1V132.2z"/>
	</g>
</g>
</svg>
