<?xml version="1.0" encoding="utf-8"?>
<!-- Generator: Adobe Illustrator 21.1.0, SVG Export Plug-In . SVG Version: 6.00 Build 0)  -->
<svg version="1.1" id="Шар_1" xmlns="http://www.w3.org/2000/svg" xmlns:xlink="http://www.w3.org/1999/xlink" x="0px" y="0px"
	 viewBox="0 0 300 300" style="enable-background:new 0 0 300 300;" xml:space="preserve">
<style type="text/css">
	.st0{fill:#3EB5F1;}
	.st1{fill:#D7569C;}
</style>
<g>
	<path class="st0" d="M120.2,128.6c-4-2.7-8.8-4.3-13.9-4.3c-3.4,0-6.7,0.7-9.7,2c-4.5,1.9-8.3,5.1-11,9c-2.7,4-4.3,8.8-4.3,13.9
		c0,3.4,0.7,6.7,2,9.7c1.9,4.5,5.1,8.3,9,11c4,2.7,8.8,4.3,14,4.3c3.4,0,6.7-0.7,9.7-2c4.5-1.9,8.3-5.1,11-9c2.7-4,4.3-8.8,4.3-13.9
		c0-3.4-0.7-6.7-2-9.7C127.3,135.1,124.2,131.3,120.2,128.6z M120.9,155.5c-1.2,2.8-3.2,5.3-5.8,7c-2.5,1.7-5.6,2.7-8.9,2.7
		c-2.2,0-4.3-0.4-6.2-1.2c-2.8-1.2-5.3-3.2-7-5.8c-1.7-2.5-2.7-5.6-2.7-8.9c0-2.2,0.4-4.3,1.2-6.2c1.2-2.8,3.2-5.3,5.8-7
		c2.5-1.7,5.6-2.7,8.9-2.7c2.2,0,4.3,0.4,6.2,1.2c2.9,1.2,5.3,3.2,7,5.8c1.7,2.5,2.7,5.6,2.7,8.9
		C122.1,151.5,121.7,153.6,120.9,155.5z"/>
	<path class="st1" d="M106.2,141.6c-4.2,0-7.7,3.4-7.7,7.7c0,4.2,3.4,7.7,7.7,7.7c4.2,0,7.7-3.4,7.7-7.7
		C113.9,145,110.5,141.6,106.2,141.6z"/>
	<path class="st0" d="M33.8,173.8l-14-48.9h9.1l8.8,34.2l8.6-34.2h7.1l8.6,34.2l8.8-34.2h9.1l-14,48.9h-7.6L49.8,141l-8.3,32.8H33.8
		z"/>
	<path class="st0" d="M136.5,173.8v-48.9h14.2c5.9,0,10.4,1.4,13.6,4.2c3.2,2.8,4.8,6.6,4.8,11.3c0,4-1.2,7.5-3.7,10.4
		c-2.4,2.9-5.6,4.6-9.6,4.9l13.8,18.1h-11l-12.8-18.1h-0.3v18.1H136.5z M145.5,133.6v14.5h5.4c2.8,0,5-0.6,6.6-1.8
		c1.6-1.2,2.5-3,2.5-5.5c0-2.5-0.9-4.3-2.5-5.5c-1.6-1.2-3.8-1.8-6.6-1.8H145.5z"/>
	<path class="st0" d="M175.6,173.8v-48.9h9.1v21.2l15.2-21.2h10.6l-18.4,24.1l18.3,24.9h-10.6l-15.2-21.4v21.4H175.6z"/>
	<path class="st0" d="M216.5,173.8v-6.3h6.3v6.3H216.5z"/>
	<path class="st0" d="M249.7,147.7v26.1h-5.8v-2.4h-0.1c-0.8,1-1.8,1.8-3,2.4c-1.1,0.6-2.4,0.9-3.8,0.9c-3.5,0-6.2-1.1-7.9-3.3
		c-1.8-2.2-2.6-5.4-2.6-9.5v-14.1h6.3V161c0,2.7,0.4,4.7,1.3,5.9c0.9,1.2,2.2,1.8,4,1.8c1.8,0,3.1-0.6,4-1.8
		c0.9-1.2,1.3-3.2,1.3-5.9v-13.3H249.7z"/>
	<path class="st0" d="M280.2,147.7v26.1h-5.8v-3.5h-0.1c-1.1,1.5-2.4,2.6-3.9,3.3c-1.5,0.7-3.1,1.1-4.8,1.1c-3.5,0-6.5-1.3-9-3.8
		c-2.5-2.5-3.8-5.8-3.8-9.9c0-4.1,1.2-7.4,3.7-10.1c2.5-2.7,5.6-4,9.2-4c1.8,0,3.5,0.4,4.9,1.2c1.5,0.8,2.7,1.9,3.6,3.4h0.1v-3.7
		H280.2z M266.8,152.8c-2.3,0-4.1,0.8-5.5,2.3c-1.4,1.6-2.1,3.5-2.1,5.9c0,2.3,0.7,4.1,2.1,5.6c1.4,1.4,3.3,2.2,5.6,2.2
		c2.2,0,4-0.7,5.4-2.2c1.4-1.5,2.1-3.4,2.1-5.8c0-2.3-0.7-4.2-2.1-5.7C270.8,153.5,269,152.8,266.8,152.8z"/>
</g>
</svg>
