<?xml version="1.0" encoding="utf-8"?>
<!-- Generator: Adobe Illustrator 21.1.0, SVG Export Plug-In . SVG Version: 6.00 Build 0)  -->
<svg version="1.1" id="Capa_1" xmlns="http://www.w3.org/2000/svg" xmlns:xlink="http://www.w3.org/1999/xlink" x="0px" y="0px"
	 viewBox="0 0 512 512" style="enable-background:new 0 0 512 512;" xml:space="preserve">
<style type="text/css">
	.st0{fill:#FFFFFF;}
	.st1{fill:#DDDDDD;}
</style>
<g>
	<g>
		<path class="st0" d="M139.3,119.1L96.9,76.7c-5.9-5.9-15.4-5.9-21.2,0s-5.9,15.4,0,21.2l42.4,42.4c5.9,5.9,15.4,5.9,21.2,0
			C145.2,134.5,145.2,125,139.3,119.1z"/>
	</g>
</g>
<g>
	<g>
		<path class="st0" d="M76,242H15c-8.3,0-15,6.7-15,15c0,8.3,6.7,15,15,15h61c8.3,0,15-6.7,15-15C91,248.7,84.3,242,76,242z"/>
	</g>
</g>
<g>
	<g>
		<path class="st0" d="M497,242h-61c-8.3,0-15,6.7-15,15c0,8.3,6.7,15,15,15h61c8.3,0,15-6.7,15-15C512,248.7,505.3,242,497,242z"/>
	</g>
</g>
<g>
	<g>
		<path class="st0" d="M436.3,76.7c-5.9-5.9-15.4-5.9-21.2,0l-42.4,42.4c-5.9,5.9-5.9,15.4,0,21.2s15.4,5.9,21.2,0l42.4-42.4
			C442.2,92,442.2,82.6,436.3,76.7z"/>
	</g>
</g>
<g>
	<g>
		<path class="st0" d="M256,0c-8.3,0-15,6.7-15,15v62c0,8.3,6.7,15,15,15c8.3,0,15-6.7,15-15V15C271,6.7,264.3,0,256,0z"/>
	</g>
</g>
<g>
	<g>
		<path class="st0" d="M340,151.1c-32.7-25.8-75-35.1-116.4-25.2c-48,11.1-86.7,49.2-98.4,96.9c-11.7,48,1.8,96.6,36.3,130.5
			c12.3,12.3,19.5,30.6,19.5,50.4v3.3c0,8.4,6.6,15,15,15h45v-92.1c-25.8-6.6-45-30-45-57.9c0-8.4,6.6-15,15-15s15,6.6,15,15
			c0,16.5,13.5,30,30,30s30-13.5,30-30c0-8.4,6.6-15,15-15s15,6.6,15,15c0,27.9-19.2,51.3-45,57.9V422h45c8.4,0,15-6.6,15-15v-3.3
			c0-19.5,7.5-38.4,20.7-51.3C376.9,326.9,391,293,391,257C391,215.6,372.4,176.9,340,151.1z"/>
	</g>
</g>
<g>
	<g>
		<path class="st1" d="M196,452v15c0,24.8,20.2,45,45,45h30c24.8,0,45-20.2,45-45v-15H196z"/>
	</g>
</g>
</svg>
