<?xml version="1.0" encoding="utf-8"?>
<!-- Generator: Adobe Illustrator 21.1.0, SVG Export Plug-In . SVG Version: 6.00 Build 0)  -->
<svg version="1.1" id="Layer_1" xmlns="http://www.w3.org/2000/svg" xmlns:xlink="http://www.w3.org/1999/xlink" x="0px" y="0px"
	 viewBox="0 0 512 512" style="enable-background:new 0 0 512 512;" xml:space="preserve">
<style type="text/css">
	.st0{fill:#694B4B;}
	.st1{fill:#5A4146;}
	.st2{fill:#E6AF78;}
	.st3{fill:#FF7E00;}
	.st4{fill:#FF9433;}
	.st5{fill:#FFFFFF;}
	.st6{fill:#F0C087;}
	.st7{fill:#E4EAF6;}
</style>
<path class="st0" d="M88.2,159.6c-82.1,0-73,99.9-72.7,172.3c0,2.7,1.4,5.2,3.8,6.6c9.1,5.5,34.1,18.3,68.9,18.3
	s59.8-12.8,68.9-18.3c2.3-1.4,3.8-3.9,3.8-6.6C161.3,259.5,170.4,159.6,88.2,159.6z"/>
<path class="st1" d="M82.9,159.8c-76.4,4.3-67.7,101.3-67.4,172.1c0,2.7,1.4,5.2,3.8,6.6c9.1,5.5,34.1,18.3,68.9,18.3L109,211.5"/>
<path class="st1" d="M88.2,159.6c-46.7,0-49.9,56.4-49.9,56.4c26.9-4.5,43.5,6.8,70.7-4.5L88.2,356.8c34.8,0,59.8-12.8,68.9-18.3
	c2.3-1.4,3.8-3.9,3.8-6.6C161.3,259.5,170.4,159.6,88.2,159.6z"/>
<path class="st1" d="M160.9,331.9c0.3-62.2,7-144.7-43.2-166.6c-0.9,4.6-2.5,17.3,1.7,25.5c10.4,20.8,20.8,20.8,31.1,36.3
	c10.4,57.1-19.8,117.7-29.9,125.9l0,0c17.8-4.2,30.5-10.9,36.5-14.5C159.4,337.1,160.9,334.6,160.9,331.9z"/>
<path class="st2" d="M166.9,347.7l-46.3-19.3c-3.9-1.6-6.4-5.4-6.4-9.6v-12.5H62.3v12.5c0,4.2-2.5,8-6.4,9.6L9.6,347.7
	C3.8,350.1,0,355.7,0,362v20.8c0,5.7,4.6,10.4,10.4,10.4h155.7c5.7,0,10.4-4.6,10.4-10.4V362C176.4,355.7,172.7,350.1,166.9,347.7z"
	/>
<path class="st3" d="M166.9,347.7L122.1,329l-33.9,14.6L54.4,329L9.6,347.7C3.8,350.1,0,355.7,0,362v20.8c0,5.7,4.6,10.4,10.4,10.4
	h155.7c5.7,0,10.4-4.6,10.4-10.4V362C176.4,355.7,172.7,350.1,166.9,347.7z"/>
<path class="st3" d="M25.3,367.7L4.5,351.2C1.7,354,0,357.9,0,362v20.8c0,5.7,4.6,10.4,10.4,10.4h20.8v-13.3
	C31.1,375.2,29,370.7,25.3,367.7z"/>
<path class="st4" d="M176.4,382.8V362c0-4.1-1.6-8-4.4-10.8l-20.9,16.5c-3.7,3-5.8,7.4-5.8,12.2v13.3h20.8
	C171.8,393.2,176.4,388.5,176.4,382.8z"/>
<path class="st5" d="M88.2,343.6l-29.7-22.3c-1.9-1.4-4.6-1-5.9,1l-5.9,8.8l18.2,25.5c1.4,1.9,4.1,2.3,6,0.8L88.2,343.6z"/>
<path class="st5" d="M88.2,343.6l29.7-22.3c1.9-1.4,4.6-1,5.9,1l5.9,8.8l-18.2,25.5c-1.4,1.9-4.1,2.3-6,0.8L88.2,343.6z"/>
<path class="st6" d="M114.2,206.3c-25.9,25.9-76.9,5.2-76.9,46.7l3.2,30.6c0.6,6.8,4.6,12.9,10.6,16.3l29.5,16.4
	c4.7,2.6,10.4,2.6,15.1,0l29.5-16.4c6-3.3,10-9.4,10.6-16.3l3.7-36.3c0.3-2.6,0.3-5.2,0.2-7.8C137.9,226.3,119.4,216.7,114.2,206.3z
	"/>
<path class="st7" d="M126.1,382.8h-13.5c-4.9,0-8.8,4-8.8,8.8v1.6h31.1v-1.6C134.9,386.7,131,382.8,126.1,382.8z"/>
<polygon class="st2" points="442.8,323.5 442.8,295 369.5,295 369.5,323.5 406.1,356.1 "/>
<path class="st3" d="M499.4,336.9L449.1,325c-0.8-0.2-1.5-0.5-2.1-0.9L406.1,348l-39.2-25c-1,1-2.3,1.7-3.7,2l-50.4,11.9
	c-7.4,1.7-12.6,8.3-12.6,15.9v31.9c0,4.5,3.6,8.1,8.1,8.1h195.4c4.5,0,8.1-3.6,8.1-8.1v-31.9C512,345.2,506.8,338.6,499.4,336.9z"/>
<path class="st6" d="M353.2,201.4l3.5,78.1c0.3,7.3,3.9,14.1,9.7,18.4l16.8,12.6c4.2,3.2,9.4,4.9,14.7,4.9h16.3
	c5.3,0,10.4-1.7,14.7-4.9l16.8-12.6c5.8-4.4,9.4-11.1,9.7-18.4l3.5-78.1L353.2,201.4L353.2,201.4z"/>
<path class="st3" d="M482.1,366.3l26.4-23.7c2.2,2.8,3.5,6.3,3.5,10.1v31.9c0,4.5-3.6,8.1-8.1,8.1h-28.5v-11.3
	C475.4,375.7,477.8,370.2,482.1,366.3z"/>
<g>
	<path class="st5" d="M368.9,314.5l37.2,33.5c0,0-10.4,5.3-23.3,15.9c-2.7,2.2-6.7,1.3-8.1-1.8l-17.5-38.5l5.5-8.3
		C364.2,313.2,367.1,312.8,368.9,314.5z"/>
	<path class="st5" d="M443.4,314.5L406.1,348c0,0,10.4,5.3,23.3,15.9c2.7,2.2,6.7,1.3,8.1-1.8l17.5-38.5l-5.5-8.3
		C448.1,313.2,445.2,312.8,443.4,314.5z"/>
</g>
<path class="st1" d="M430.8,174.4l3.8,27c17.4,3.5,19.9,30.8,20.3,38.6c0.1,1.4,0.5,2.8,1.3,4l6.6,10.3c0,0-2.3-17.1,8.1-28.5
	C471,225.8,474.6,158.1,430.8,174.4z"/>
<path class="st6" d="M467,252.6l-4.6,18.4c-0.5,2.2-2.5,3.7-4.7,3.7l0,0c-2.5,0-4.6-1.8-4.9-4.3l-2.4-18.8c-0.6-5,3.3-9.5,8.4-9.5h0
	C464.3,242.1,468.3,247.2,467,252.6z"/>
<path class="st1" d="M357.1,167.1l6,4.1c-27.2,20.1-22.1,54.6-22.1,54.6c8.1,8.1,8.1,28.5,8.1,28.5l8.1-8.1c0,0-3.1-23.5,12.2-32.6
	c14.3-8.4,26.7-4.1,39.4-4.1c34.1,0,43.6-12.9,42-28.5c-0.9-8.1-13.2-25-44.8-24.4C393.4,156.8,369.5,160.7,357.1,167.1z"/>
<path class="st1" d="M354.7,206c0,0-4.3-17.1,8.4-34.7c-27.2,20.1-22.1,54.6-22.1,54.6c8.1,8.1,8.1,28.5,8.1,28.5l8.1-8.1
	c0,0-3.1-23.5,12.2-32.6c14.3-8.4,26.7-4.1,39.4-4.1c5.5,0,10.4-0.4,14.7-1C397.4,209.4,381.9,189.5,354.7,206z"/>
<path class="st2" d="M345.3,252.6l4.6,18.4c0.5,2.2,2.5,3.7,4.8,3.7l0,0c2.5,0,4.6-1.8,4.9-4.3l2.4-18.8c0.6-5-3.3-9.5-8.4-9.5h0
	C348,242.1,344,247.2,345.3,252.6z"/>
<path class="st1" d="M256.2,57.5c-139.6,0-124.2,169.8-123.5,292.9c0,4.6,2.5,8.8,6.4,11.2c15.5,9.3,58,31.1,117.1,31.1
	s101.6-21.8,117.1-31.1c4-2.4,6.4-6.6,6.4-11.2C380.3,227.3,395.8,57.5,256.2,57.5z"/>
<path class="st1" d="M247.2,57.8C117.3,65.1,132,230.1,132.6,350.4c0,4.6,2.5,8.8,6.4,11.2c15.5,9.3,58,31.1,117.1,31.1l35.3-247"/>
<path class="st1" d="M379.7,350.4c0.5-105.7,12-245.9-73.4-283.3c-1.5,7.7-4.2,29.3,2.8,43.3c17.6,35.3,35.3,35.3,52.9,61.8
	c17.6,97-33.7,200-50.8,214.1l0,0c30.2-7.2,51.9-18.6,62-24.6C377.2,359.2,379.7,355,379.7,350.4z"/>
<path class="st2" d="M389.8,377.1l-78.7-32.8c-6.6-2.7-10.9-9.2-10.9-16.3v-21.3H212V328c0,7.1-4.3,13.5-10.9,16.3l-78.7,32.8
	c-9.9,4.1-16.3,13.7-16.3,24.4v35.3c0,9.7,7.9,17.6,17.6,17.6h264.7c9.7,0,17.6-7.9,17.6-17.6v-35.3
	C406.1,390.9,399.7,381.2,389.8,377.1z"/>
<path class="st3" d="M389.8,377.1l-76.1-31.7l-57.6,24.8l-57.6-24.8l-76.1,31.7c-9.9,4.1-16.3,13.7-16.3,24.4v35.3
	c0,9.7,7.9,17.6,17.6,17.6h264.7c9.7,0,17.6-7.9,17.6-17.6v-35.3C406.1,390.9,399.7,381.2,389.8,377.1z"/>
<path class="st3" d="M149.2,411.3l-35.4-28.2c-4.7,4.9-7.6,11.4-7.6,18.5v35.3c0,9.7,7.9,17.6,17.6,17.6h35.3v-22.6
	C159.1,423.9,155.5,416.3,149.2,411.3z"/>
<path class="st3" d="M406.1,436.9v-35.3c0-7-2.8-13.5-7.5-18.4l-35.5,28.1c-6.3,5-9.9,12.6-9.9,20.7v22.6h35.3
	C398.2,454.5,406.1,446.6,406.1,436.9z"/>
<path class="st5" d="M256.2,370.3l-50.5-37.9c-3.2-2.4-7.9-1.6-10.1,1.7l-10,15l31,43.3c2.4,3.3,7,3.9,10.2,1.4L256.2,370.3z"/>
<path class="st5" d="M256.2,370.3l50.5-37.9c3.2-2.4,7.9-1.6,10.1,1.7l10,15l-31,43.3c-2.4,3.3-7,3.9-10.2,1.4L256.2,370.3z"/>
<path class="st6" d="M300.3,136.9c-44.1,44.1-130.7,8.8-130.7,79.4l5.5,52c1.1,11.6,7.8,22,18,27.7l50.2,27.9c8,4.4,17.7,4.4,25.7,0
	l50.2-27.9c10.2-5.7,16.9-16,18-27.7l6.3-61.7c0.5-4.4,0.5-8.8,0.4-13.2C340.7,170.9,309.1,154.5,300.3,136.9z"/>
</svg>
