<?xml version="1.0" encoding="utf-8"?>
<!-- Generator: Adobe Illustrator 21.1.0, SVG Export Plug-In . SVG Version: 6.00 Build 0)  -->
<svg version="1.1" id="Capa_1" xmlns="http://www.w3.org/2000/svg" xmlns:xlink="http://www.w3.org/1999/xlink" x="0px" y="0px"
	 viewBox="0 0 60 60" style="enable-background:new 0 0 60 60;" xml:space="preserve">
<style type="text/css">
	.st0{fill:#126362;}
	.st1{fill:#FF7E00;}
</style>
<path class="st0" d="M59,29h-2C56.5,14.9,45.1,3.5,31,3V1c0-0.6-0.4-1-1-1s-1,0.4-1,1v2C14.9,3.5,3.5,14.9,3,29H1c-0.6,0-1,0.4-1,1
	s0.4,1,1,1h2c0.5,14.1,11.9,25.5,26,26v2c0,0.6,0.4,1,1,1s1-0.4,1-1v-2c14.1-0.5,25.5-11.9,26-26h2c0.6,0,1-0.4,1-1S59.6,29,59,29z
	 M31,55v-2c0-0.6-0.4-1-1-1s-1,0.4-1,1v2C16,54.5,5.5,44,5,31h2c0.6,0,1-0.4,1-1s-0.4-1-1-1H5C5.5,16,16,5.5,29,5v2c0,0.6,0.4,1,1,1
	s1-0.4,1-1V5c13,0.5,23.5,11,24,24h-2c-0.6,0-1,0.4-1,1s0.4,1,1,1h2C54.5,44,44,54.5,31,55z"/>
<path class="st1" d="M42,29h-5.1c-0.4-3.1-2.9-5.5-5.9-5.9V18c0-0.6-0.4-1-1-1s-1,0.4-1,1v5.1c-3.1,0.4-5.5,2.9-5.9,5.9H18
	c-0.6,0-1,0.4-1,1s0.4,1,1,1h5.1c0.4,3.1,2.9,5.5,5.9,5.9V42c0,0.6,0.4,1,1,1s1-0.4,1-1v-5.1c3.1-0.4,5.5-2.9,5.9-5.9H42
	c0.6,0,1-0.4,1-1S42.6,29,42,29z"/>
<path class="st1" d="M30,8h-0.1c-0.5,0-1-0.4-1-1V1c0-0.5,0.4-1,1-1H30c0.5,0,1,0.4,1,1v6C31,7.6,30.6,8,30,8z"/>
<path class="st1" d="M30.1,60H30c-0.5,0-1-0.4-1-1v-6c0-0.5,0.4-1,1-1h0.1c0.5,0,1,0.4,1,1v6C31,59.6,30.6,60,30.1,60z"/>
<path class="st1" d="M52,30.1V30c0-0.5,0.4-1,1-1h6c0.5,0,1,0.4,1,1v0.1c0,0.5-0.4,1-1,1h-6C52.4,31,52,30.6,52,30.1z"/>
<path class="st1" d="M0,30.1V30c0-0.5,0.4-1,1-1h6c0.5,0,1,0.4,1,1v0.1c0,0.5-0.4,1-1,1H1C0.4,31,0,30.6,0,30.1z"/>
</svg>
